<svg width="16" height="16" viewBox="0 0 16 16" fill="none" xmlns="http://www.w3.org/2000/svg">
<path d="M5.4589 8.63484C5.2905 8.63484 5.12901 8.56795 5.00994 8.44888C4.89087 8.32981 4.82397 8.16831 4.82397 7.99992C4.82397 7.83153 4.89087 7.67003 5.00994 7.55096C5.12901 7.43189 5.2905 7.365 5.4589 7.365C5.62729 7.365 5.78878 7.43189 5.90785 7.55096C6.02692 7.67003 6.09382 7.83153 6.09382 7.99992C6.09382 8.16831 6.02692 8.32981 5.90785 8.44888C5.78878 8.56795 5.62729 8.63484 5.4589 8.63484ZM5.4589 11.1745C5.2905 11.1745 5.12901 11.1076 5.00994 10.9886C4.89087 10.8695 4.82397 10.708 4.82397 10.5396C4.82397 10.3712 4.89087 10.2097 5.00994 10.0906C5.12901 9.97158 5.2905 9.90468 5.4589 9.90468C5.62729 9.90468 5.78878 9.97158 5.90785 10.0906C6.02692 10.2097 6.09382 10.3712 6.09382 10.5396C6.09382 10.708 6.02692 10.8695 5.90785 10.9886C5.78878 11.1076 5.62729 11.1745 5.4589 11.1745ZM7.36366 10.5396C7.36366 10.708 7.43055 10.8695 7.54962 10.9886C7.66869 11.1076 7.83019 11.1745 7.99858 11.1745C8.16697 11.1745 8.32846 11.1076 8.44753 10.9886C8.5666 10.8695 8.6335 10.708 8.6335 10.5396C8.6335 10.3712 8.5666 10.2097 8.44753 10.0906C8.32846 9.97158 8.16697 9.90468 7.99858 9.90468C7.83019 9.90468 7.66869 9.97158 7.54962 10.0906C7.43055 10.2097 7.36366 10.3712 7.36366 10.5396ZM10.5383 11.1745C10.3699 11.1745 10.2084 11.1076 10.0893 10.9886C9.97023 10.8695 9.90334 10.708 9.90334 10.5396C9.90334 10.3712 9.97023 10.2097 10.0893 10.0906C10.2084 9.97158 10.3699 9.90468 10.5383 9.90468C10.7067 9.90468 10.8681 9.97158 10.9872 10.0906C11.1063 10.2097 11.1732 10.3712 11.1732 10.5396C11.1732 10.708 11.1063 10.8695 10.9872 10.9886C10.8681 11.1076 10.7067 11.1745 10.5383 11.1745ZM7.36366 7.99992C7.36366 8.16831 7.43055 8.32981 7.54962 8.44888C7.66869 8.56795 7.83019 8.63484 7.99858 8.63484C8.16697 8.63484 8.32846 8.56795 8.44753 8.44888C8.5666 8.32981 8.6335 8.16831 8.6335 7.99992C8.6335 7.83153 8.5666 7.67003 8.44753 7.55096C8.32846 7.43189 8.16697 7.365 7.99858 7.365C7.83019 7.365 7.66869 7.43189 7.54962 7.55096C7.43055 7.67003 7.36366 7.83153 7.36366 7.99992ZM10.5383 8.63484C10.3699 8.63484 10.2084 8.56795 10.0893 8.44888C9.97023 8.32981 9.90334 8.16831 9.90334 7.99992C9.90334 7.83153 9.97023 7.67003 10.0893 7.55096C10.2084 7.43189 10.3699 7.365 10.5383 7.365C10.7067 7.365 10.8681 7.43189 10.9872 7.55096C11.1063 7.67003 11.1732 7.83153 11.1732 7.99992C11.1732 8.16831 11.1063 8.32981 10.9872 8.44888C10.8681 8.56795 10.7067 8.63484 10.5383 8.63484ZM5.4589 4.82532C5.2905 4.82532 5.12901 4.89221 5.00994 5.01128C4.89087 5.13035 4.82397 5.29185 4.82397 5.46024C4.82397 5.62863 4.89087 5.79012 5.00994 5.90919C5.12901 6.02827 5.2905 6.09516 5.4589 6.09516H10.5383C10.7067 6.09516 10.8681 6.02827 10.9872 5.90919C11.1063 5.79012 11.1732 5.62863 11.1732 5.46024C11.1732 5.29185 11.1063 5.13035 10.9872 5.01128C10.8681 4.89221 10.7067 4.82532 10.5383 4.82532H5.4589Z" fill="#6B779A"/>
<path fill-rule="evenodd" clip-rule="evenodd" d="M4.19047 2.28577C3.68529 2.28577 3.20081 2.48645 2.8436 2.84366C2.48639 3.20087 2.28571 3.68535 2.28571 4.19053V11.8096C2.28571 12.3148 2.48639 12.7992 2.8436 13.1564C3.20081 13.5137 3.68529 13.7143 4.19047 13.7143H11.8095C12.3147 13.7143 12.7992 13.5137 13.1564 13.1564C13.5136 12.7992 13.7143 12.3148 13.7143 11.8096V4.19053C13.7143 3.68535 13.5136 3.20087 13.1564 2.84366C12.7992 2.48645 12.3147 2.28577 11.8095 2.28577H4.19047ZM11.8095 3.55561H4.19047C4.02208 3.55561 3.86058 3.6225 3.74151 3.74157C3.62244 3.86064 3.55555 4.02214 3.55555 4.19053V11.8096C3.55555 11.978 3.62244 12.1395 3.74151 12.2585C3.86058 12.3776 4.02208 12.4445 4.19047 12.4445H11.8095C11.9779 12.4445 12.1394 12.3776 12.2585 12.2585C12.3775 12.1395 12.4444 11.978 12.4444 11.8096V4.19053C12.4444 4.02214 12.3775 3.86064 12.2585 3.74157C12.1394 3.6225 11.9779 3.55561 11.8095 3.55561Z" fill="#6B779A"/>
</svg>
