<svg width="24" height="20" viewBox="0 0 24 20" fill="none" xmlns="http://www.w3.org/2000/svg">
<path d="M14.82 0C15.984 0.0110988 16.932 0.566038 17.484 1.56493C17.6265 1.82852 17.8253 2.21351 18.0334 2.61964L18.2846 3.11071L18.408 3.35183L18.528 3.596C18.576 3.6737 18.66 3.72919 18.768 3.72919C21.648 3.72919 24 5.90455 24 8.56826V15.1609C24 17.8246 21.648 20 18.768 20H5.232C2.34 20 0 17.8246 0 15.1609V8.56826C0 5.90455 2.34 3.72919 5.232 3.72919C5.328 3.72919 5.424 3.68479 5.46 3.596L5.532 3.46282C5.868 2.80799 6.276 2.00888 6.516 1.56493C7.068 0.566038 8.004 0.0110988 9.168 0H14.82ZM12 7.11432C10.74 7.11432 9.552 7.56937 8.652 8.40178C7.764 9.23419 7.272 10.3219 7.284 11.4761C7.284 12.6415 7.776 13.7292 8.664 14.5616C9.564 15.3829 10.74 15.838 12 15.838C13.296 15.838 14.472 15.3496 15.324 14.5616C16.176 13.7736 16.704 12.6859 16.716 11.4761C16.716 10.3219 16.224 9.22309 15.336 8.39068C14.448 7.56937 13.26 7.11432 12 7.11432ZM12 8.77913C12.78 8.77913 13.512 9.0566 14.064 9.56715C14.616 10.0777 14.916 10.7547 14.916 11.4761C14.904 12.9634 13.608 14.1731 12 14.1731C11.22 14.1731 10.488 13.8957 9.936 13.3851C9.384 12.8746 9.084 12.1976 9.084 11.4761V11.465C9.072 10.7658 9.372 10.0888 9.924 9.57825C10.488 9.0566 11.22 8.77913 12 8.77913ZM18.732 6.84795C18.132 6.84795 17.652 7.303 17.652 7.85794C17.652 8.41288 18.132 8.85683 18.732 8.85683C19.332 8.85683 19.824 8.41288 19.824 7.85794C19.824 7.303 19.332 6.84795 18.732 6.84795Z" fill="white"/>
</svg>
