<svg width="16" height="16" viewBox="0 0 16 16" fill="none" xmlns="http://www.w3.org/2000/svg">
<path d="M7.99999 2.28577C4.84374 2.28577 2.28571 4.8438 2.28571 8.00005C2.28571 11.1563 4.84374 13.7143 7.99999 13.7143C11.1562 13.7143 13.7143 11.1563 13.7143 8.00005C13.7143 4.8438 11.1562 2.28577 7.99999 2.28577ZM7.99999 12.7612C5.37053 12.7612 3.23883 10.6295 3.23883 8.00005C3.23883 5.37059 5.37053 3.23889 7.99999 3.23889C10.6295 3.23889 12.7612 5.37059 12.7612 8.00005C12.7612 10.6295 10.6295 12.7612 7.99999 12.7612ZM8.47544 4.18978H7.52231V8.00005L9.66517 10.1429L10.3795 9.42862L8.47544 7.52461V4.18978Z" fill="#6E4CEE"/>
</svg>
