<svg width="20" height="20" viewBox="0 0 20 20" fill="none" xmlns="http://www.w3.org/2000/svg">
<path d="M3.00098 10.0333C3.00098 7.39376 3.00098 6.07362 3.82134 5.25396C4.641 4.43359 5.96114 4.43359 8.60072 4.43359H11.4006C14.0402 4.43359 15.3603 4.43359 16.18 5.25396C17.0003 6.07362 17.0003 7.39376 17.0003 10.0333V11.4333C17.0003 14.0728 17.0003 15.393 16.18 16.2126C15.3603 17.033 14.0402 17.033 11.4006 17.033H8.60072C5.96114 17.033 4.641 17.033 3.82134 16.2126C3.00098 15.393 3.00098 14.0728 3.00098 11.4333V10.0333Z" stroke="#6B779A"/>
<path d="M6.50142 4.43362V3.38367M13.5011 4.43362V3.38367M3.35156 7.93346H16.6509" stroke="#6B779A" stroke-linecap="round"/>
<path d="M14.2004 13.5332C14.2004 13.7188 14.1266 13.8968 13.9954 14.0281C13.8641 14.1594 13.6861 14.2331 13.5004 14.2331C13.3148 14.2331 13.1367 14.1594 13.0055 14.0281C12.8742 13.8968 12.8005 13.7188 12.8005 13.5332C12.8005 13.3475 12.8742 13.1695 13.0055 13.0382C13.1367 12.9069 13.3148 12.8332 13.5004 12.8332C13.6861 12.8332 13.8641 12.9069 13.9954 13.0382C14.1266 13.1695 14.2004 13.3475 14.2004 13.5332ZM14.2004 10.7333C14.2004 10.9189 14.1266 11.097 13.9954 11.2282C13.8641 11.3595 13.6861 11.4333 13.5004 11.4333C13.3148 11.4333 13.1367 11.3595 13.0055 11.2282C12.8742 11.097 12.8005 10.9189 12.8005 10.7333C12.8005 10.5476 12.8742 10.3696 13.0055 10.2383C13.1367 10.1071 13.3148 10.0333 13.5004 10.0333C13.6861 10.0333 13.8641 10.1071 13.9954 10.2383C14.1266 10.3696 14.2004 10.5476 14.2004 10.7333ZM10.7006 13.5332C10.7006 13.7188 10.6268 13.8968 10.4955 14.0281C10.3643 14.1594 10.1862 14.2331 10.0006 14.2331C9.81494 14.2331 9.6369 14.1594 9.50564 14.0281C9.37437 13.8968 9.30062 13.7188 9.30062 13.5332C9.30062 13.3475 9.37437 13.1695 9.50564 13.0382C9.6369 12.9069 9.81494 12.8332 10.0006 12.8332C10.1862 12.8332 10.3643 12.9069 10.4955 13.0382C10.6268 13.1695 10.7006 13.3475 10.7006 13.5332ZM10.7006 10.7333C10.7006 10.9189 10.6268 11.097 10.4955 11.2282C10.3643 11.3595 10.1862 11.4333 10.0006 11.4333C9.81494 11.4333 9.6369 11.3595 9.50564 11.2282C9.37437 11.097 9.30062 10.9189 9.30062 10.7333C9.30062 10.5476 9.37437 10.3696 9.50564 10.2383C9.6369 10.1071 9.81494 10.0333 10.0006 10.0333C10.1862 10.0333 10.3643 10.1071 10.4955 10.2383C10.6268 10.3696 10.7006 10.5476 10.7006 10.7333ZM7.20072 13.5332C7.20072 13.7188 7.12697 13.8968 6.9957 14.0281C6.86443 14.1594 6.68639 14.2331 6.50075 14.2331C6.31511 14.2331 6.13707 14.1594 6.0058 14.0281C5.87453 13.8968 5.80078 13.7188 5.80078 13.5332C5.80078 13.3475 5.87453 13.1695 6.0058 13.0382C6.13707 12.9069 6.31511 12.8332 6.50075 12.8332C6.68639 12.8332 6.86443 12.9069 6.9957 13.0382C7.12697 13.1695 7.20072 13.3475 7.20072 13.5332ZM7.20072 10.7333C7.20072 10.9189 7.12697 11.097 6.9957 11.2282C6.86443 11.3595 6.68639 11.4333 6.50075 11.4333C6.31511 11.4333 6.13707 11.3595 6.0058 11.2282C5.87453 11.097 5.80078 10.9189 5.80078 10.7333C5.80078 10.5476 5.87453 10.3696 6.0058 10.2383C6.13707 10.1071 6.31511 10.0333 6.50075 10.0333C6.68639 10.0333 6.86443 10.1071 6.9957 10.2383C7.12697 10.3696 7.20072 10.5476 7.20072 10.7333Z" fill="#6B779A"/>
</svg>
