<svg width="24" height="24" viewBox="0 0 24 24" fill="none" xmlns="http://www.w3.org/2000/svg">
<path fill-rule="evenodd" clip-rule="evenodd" d="M8.07599 7.25993L8.17099 7.34293L16.657 15.8279C16.7682 15.939 16.8517 16.0748 16.9006 16.2242C16.9495 16.3736 16.9625 16.5325 16.9386 16.6878C16.9146 16.8432 16.8543 16.9907 16.7627 17.1185C16.671 17.2462 16.5505 17.3505 16.411 17.4229L16.295 17.4729L5.90999 21.2999C3.95799 22.0199 2.05699 20.1849 2.64999 18.2359L2.69999 18.0899L6.52599 7.70493C6.57658 7.56737 6.65678 7.4426 6.76093 7.33947C6.86508 7.23634 6.99062 7.15736 7.12868 7.10813C7.26673 7.0589 7.41392 7.04062 7.55983 7.05458C7.70573 7.06855 7.84678 7.11441 7.97299 7.18893L8.07599 7.25993ZM7.86199 9.86193L4.57699 18.7819C4.54645 18.8649 4.53847 18.9545 4.55386 19.0416C4.56924 19.1287 4.60745 19.2101 4.66458 19.2776C4.72171 19.3451 4.79572 19.3963 4.87906 19.4258C4.96241 19.4554 5.0521 19.4623 5.13899 19.4459L5.21899 19.4229L14.137 16.1369L7.86199 9.86193ZM17.107 11.6039C18.018 11.6519 19.267 11.8439 20.353 12.4959C20.5732 12.6265 20.7349 12.8364 20.8049 13.0826C20.8749 13.3288 20.8478 13.5925 20.7293 13.8193C20.6108 14.0461 20.4097 14.2189 20.1677 14.302C19.9256 14.3851 19.6609 14.3722 19.428 14.2659L19.324 14.2109C18.642 13.8009 17.77 13.6409 17.002 13.6009C16.6856 13.5826 16.3683 13.584 16.052 13.6049L15.736 13.6359C15.4751 13.6696 15.2115 13.5991 15.0022 13.4398C14.793 13.2805 14.6549 13.0451 14.6179 12.7847C14.581 12.5243 14.6481 12.2598 14.8048 12.0485C14.9615 11.8372 15.1951 11.6962 15.455 11.6559C16.0027 11.5852 16.5559 11.5674 17.107 11.6029M19.132 8.81693C19.3868 8.81747 19.6318 8.91524 19.8169 9.09029C20.0021 9.26534 20.1134 9.50446 20.1282 9.75883C20.143 10.0132 20.0602 10.2636 19.8966 10.459C19.733 10.6543 19.501 10.7798 19.248 10.8099L19.132 10.8169H18.424C18.1692 10.8164 17.9242 10.7186 17.7391 10.5436C17.5539 10.3685 17.4426 10.1294 17.4278 9.87504C17.413 9.62068 17.4958 9.37025 17.6594 9.17491C17.823 8.97956 18.055 8.85402 18.308 8.82393L18.424 8.81693H19.132ZM15.95 8.04993C16.1222 8.22213 16.2256 8.45123 16.2409 8.69425C16.2562 8.93728 16.1822 9.17753 16.033 9.36993L15.95 9.46393L14.89 10.5249C14.7105 10.7062 14.4684 10.812 14.2134 10.8206C13.9585 10.8293 13.7098 10.7401 13.5184 10.5715C13.327 10.4028 13.2073 10.1673 13.1838 9.91331C13.1603 9.65927 13.2348 9.40586 13.392 9.20493L13.475 9.11093L14.535 8.05093C14.6279 7.95796 14.7382 7.8842 14.8596 7.83387C14.981 7.78355 15.1111 7.75765 15.2425 7.75765C15.3739 7.75765 15.504 7.78355 15.6254 7.83387C15.7468 7.8842 15.8571 7.95696 15.95 8.04993ZM13.363 2.78493C13.811 4.13093 13.571 5.60493 13.291 6.63493C13.1227 7.27708 12.8916 7.90109 12.601 8.49793C12.4826 8.7353 12.2747 8.91591 12.0231 9.00002C11.7716 9.08413 11.4969 9.06485 11.2595 8.94643C11.0221 8.82801 10.8415 8.62015 10.7574 8.36857C10.6733 8.11699 10.6926 7.8423 10.811 7.60493C11.0429 7.12549 11.2271 6.62441 11.361 6.10893C11.588 5.27693 11.702 4.37393 11.527 3.63393L11.466 3.41793C11.4224 3.29287 11.4041 3.1604 11.4121 3.02821C11.4202 2.89602 11.4544 2.76674 11.5128 2.64787C11.5712 2.52901 11.6526 2.42293 11.7524 2.3358C11.8521 2.24866 11.9681 2.1822 12.0938 2.14028C12.2194 2.09836 12.3521 2.08182 12.4842 2.0916C12.6163 2.10138 12.7451 2.13731 12.8631 2.19728C12.9812 2.25725 13.0862 2.34008 13.172 2.44096C13.2578 2.54184 13.3227 2.65876 13.363 2.78493ZM18.778 5.22293C18.9655 5.41046 19.0708 5.66477 19.0708 5.92993C19.0708 6.1951 18.9655 6.44941 18.778 6.63693L18.071 7.34393C17.9787 7.43944 17.8684 7.51563 17.7464 7.56804C17.6244 7.62044 17.4932 7.64803 17.3604 7.64918C17.2276 7.65034 17.0959 7.62504 16.973 7.57476C16.8501 7.52447 16.7385 7.45022 16.6446 7.35633C16.5507 7.26244 16.4765 7.15078 16.4262 7.02789C16.3759 6.90499 16.3506 6.77331 16.3517 6.64053C16.3529 6.50775 16.3805 6.37653 16.4329 6.25453C16.4853 6.13253 16.5615 6.02218 16.657 5.92993L17.364 5.22293C17.5515 5.03546 17.8058 4.93015 18.071 4.93015C18.3362 4.93015 18.5905 5.03546 18.778 5.22293Z" fill="white"/>
</svg>
