<svg width="16" height="17" viewBox="0 0 16 17" fill="none" xmlns="http://www.w3.org/2000/svg">
<path fill-rule="evenodd" clip-rule="evenodd" d="M4.73001 5.04995L4.80917 5.11911L11.8808 12.1899C11.9735 12.2825 12.0431 12.3957 12.0838 12.5202C12.1246 12.6447 12.1354 12.777 12.1155 12.9065C12.0955 13.036 12.0453 13.159 11.9689 13.2654C11.8925 13.3718 11.7921 13.4587 11.6758 13.5191L11.5792 13.5608L2.92501 16.7499C1.29834 17.3499 -0.285828 15.8208 0.208339 14.1966L0.250005 14.0749L3.43834 5.42078C3.48049 5.30614 3.54733 5.20217 3.63412 5.11623C3.72091 5.03028 3.82553 4.96447 3.94057 4.92344C4.05562 4.88242 4.17828 4.86718 4.29987 4.87882C4.42145 4.89046 4.539 4.92868 4.64417 4.99078L4.73001 5.04995ZM4.55167 7.21828L1.81417 14.6516C1.78872 14.7208 1.78207 14.7954 1.79489 14.868C1.80771 14.9406 1.83955 15.0084 1.88716 15.0647C1.93477 15.1209 1.99644 15.1636 2.0659 15.1882C2.13535 15.2128 2.21009 15.2186 2.28251 15.2049L2.34917 15.1858L9.78084 12.4474L4.55167 7.21828ZM12.2558 8.66994C13.015 8.70994 14.0558 8.86994 14.9608 9.41328C15.1443 9.52205 15.2791 9.69702 15.3374 9.90218C15.3958 10.1073 15.3732 10.327 15.2744 10.5161C15.1756 10.7051 15.0081 10.8491 14.8064 10.9183C14.6047 10.9875 14.3841 10.9768 14.19 10.8883L14.1033 10.8424C13.535 10.5008 12.8083 10.3674 12.1683 10.3341C11.9046 10.3189 11.6402 10.32 11.3767 10.3374L11.1133 10.3633C10.896 10.3913 10.6763 10.3326 10.5019 10.1998C10.3275 10.067 10.2124 9.87091 10.1816 9.65389C10.1508 9.43688 10.2068 9.21646 10.3373 9.04041C10.4679 8.86435 10.6626 8.74682 10.8792 8.71328C11.3356 8.65432 11.7966 8.63953 12.2558 8.66911M13.9433 6.34745C14.1557 6.34789 14.3598 6.42937 14.5141 6.57524C14.6684 6.72112 14.7612 6.92038 14.7735 7.13236C14.7859 7.34433 14.7168 7.55301 14.5805 7.7158C14.4442 7.87859 14.2508 7.9832 14.04 8.00828L13.9433 8.01411H13.3533C13.141 8.01367 12.9369 7.93219 12.7826 7.78631C12.6283 7.64044 12.5355 7.44117 12.5232 7.2292C12.5108 7.01723 12.5799 6.80854 12.7162 6.64576C12.8525 6.48297 13.0458 6.37835 13.2567 6.35328L13.3533 6.34745H13.9433ZM11.2917 5.70828C11.4352 5.85177 11.5213 6.04269 11.5341 6.24521C11.5468 6.44773 11.4852 6.64794 11.3608 6.80828L11.2917 6.88661L10.4083 7.77078C10.2587 7.92182 10.057 8.00997 9.84455 8.01718C9.63207 8.02439 9.42487 7.95011 9.26536 7.80956C9.10584 7.669 9.00609 7.47279 8.9865 7.26109C8.96692 7.04939 9.02899 6.83821 9.16001 6.67078L9.22917 6.59244L10.1125 5.70911C10.1899 5.63163 10.2818 5.57017 10.383 5.52823C10.4841 5.48629 10.5926 5.46471 10.7021 5.46471C10.8116 5.46471 10.92 5.48629 11.0212 5.52823C11.1224 5.57017 11.2143 5.6308 11.2917 5.70828ZM9.13584 1.32078C9.50917 2.44244 9.30917 3.67078 9.07584 4.52911C8.93561 5.06423 8.74301 5.58424 8.50084 6.08161C8.40216 6.27942 8.22894 6.42992 8.01929 6.50001C7.80964 6.57011 7.58073 6.55404 7.38292 6.45536C7.18511 6.35668 7.03461 6.18346 6.96452 5.97381C6.89443 5.76416 6.91049 5.53525 7.00917 5.33744C7.20241 4.9379 7.35593 4.52034 7.46751 4.09078C7.65667 3.39744 7.75167 2.64494 7.60584 2.02828L7.55501 1.84828C7.51869 1.74406 7.50344 1.63367 7.51013 1.52351C7.51682 1.41335 7.54533 1.30561 7.594 1.20656C7.64267 1.10751 7.71053 1.01911 7.79365 0.946496C7.87676 0.873884 7.97347 0.818503 8.07815 0.78357C8.18284 0.748637 8.29343 0.734847 8.40349 0.743C8.51355 0.751153 8.6209 0.781088 8.7193 0.831066C8.8177 0.881043 8.90519 0.950069 8.9767 1.03414C9.0482 1.1182 9.1023 1.21564 9.13584 1.32078ZM13.6483 3.35244C13.8046 3.50872 13.8923 3.72064 13.8923 3.94161C13.8923 4.16258 13.8046 4.37451 13.6483 4.53078L13.0592 5.11995C12.9823 5.19954 12.8903 5.26302 12.7887 5.3067C12.687 5.35037 12.5777 5.37336 12.467 5.37432C12.3564 5.37528 12.2466 5.3542 12.1442 5.3123C12.0418 5.2704 11.9488 5.20852 11.8705 5.13027C11.7923 5.05203 11.7304 4.95899 11.6885 4.85657C11.6466 4.75416 11.6255 4.64443 11.6265 4.53378C11.6274 4.42313 11.6504 4.31378 11.6941 4.21211C11.7378 4.11044 11.8012 4.01848 11.8808 3.94161L12.47 3.35244C12.6263 3.19622 12.8382 3.10846 13.0592 3.10846C13.2801 3.10846 13.4921 3.19622 13.6483 3.35244Z" fill="#CDD9FF"/>
</svg>
