<svg width="24" height="24" viewBox="0 0 24 24" fill="none" xmlns="http://www.w3.org/2000/svg">
<path fill-rule="evenodd" clip-rule="evenodd" d="M8.0763 7.25993L8.1713 7.34293L16.6573 15.8279C16.7685 15.939 16.852 16.0748 16.9009 16.2242C16.9498 16.3736 16.9628 16.5325 16.9389 16.6878C16.9149 16.8432 16.8546 16.9907 16.763 17.1185C16.6713 17.2462 16.5508 17.3505 16.4113 17.4229L16.2953 17.4729L5.9103 21.2999C3.9583 22.0199 2.0573 20.1849 2.6503 18.2359L2.7003 18.0899L6.5263 7.70493C6.57688 7.56737 6.65708 7.4426 6.76123 7.33947C6.86538 7.23634 6.99093 7.15736 7.12898 7.10813C7.26704 7.0589 7.41423 7.04062 7.56013 7.05458C7.70604 7.06855 7.84709 7.11441 7.9733 7.18893L8.0763 7.25993ZM7.8623 9.86193L4.5773 18.7819C4.54676 18.8649 4.53877 18.9545 4.55416 19.0416C4.56955 19.1287 4.60775 19.2101 4.66488 19.2776C4.72202 19.3451 4.79603 19.3963 4.87937 19.4258C4.96271 19.4554 5.0524 19.4623 5.1393 19.4459L5.2193 19.4229L14.1373 16.1369L7.8623 9.86193ZM17.1073 11.6039C18.0183 11.6519 19.2673 11.8439 20.3533 12.4959C20.5735 12.6265 20.7352 12.8364 20.8052 13.0826C20.8752 13.3288 20.8481 13.5925 20.7296 13.8193C20.6111 14.0461 20.41 14.2189 20.168 14.302C19.9259 14.3851 19.6612 14.3722 19.4283 14.2659L19.3243 14.2109C18.6423 13.8009 17.7703 13.6409 17.0023 13.6009C16.6859 13.5826 16.3686 13.584 16.0523 13.6049L15.7363 13.6359C15.4754 13.6696 15.2118 13.5991 15.0025 13.4398C14.7933 13.2805 14.6552 13.0451 14.6182 12.7847C14.5813 12.5243 14.6484 12.2598 14.8051 12.0485C14.9618 11.8372 15.1954 11.6962 15.4553 11.6559C16.003 11.5852 16.5562 11.5674 17.1073 11.6029M19.1323 8.81693C19.3871 8.81747 19.6321 8.91524 19.8172 9.09029C20.0024 9.26534 20.1137 9.50446 20.1285 9.75883C20.1433 10.0132 20.0605 10.2636 19.8969 10.459C19.7333 10.6543 19.5013 10.7798 19.2483 10.8099L19.1323 10.8169H18.4243C18.1695 10.8164 17.9245 10.7186 17.7394 10.5436C17.5542 10.3685 17.4429 10.1294 17.4281 9.87504C17.4133 9.62068 17.4961 9.37025 17.6597 9.17491C17.8233 8.97956 18.0553 8.85402 18.3083 8.82393L18.4243 8.81693H19.1323ZM15.9503 8.04993C16.1225 8.22213 16.2259 8.45123 16.2412 8.69425C16.2565 8.93728 16.1826 9.17753 16.0333 9.36993L15.9503 9.46393L14.8903 10.5249C14.7108 10.7062 14.4687 10.812 14.2138 10.8206C13.9588 10.8293 13.7101 10.7401 13.5187 10.5715C13.3273 10.4028 13.2076 10.1673 13.1841 9.91331C13.1606 9.65927 13.2351 9.40586 13.3923 9.20493L13.4753 9.11093L14.5353 8.05093C14.6282 7.95796 14.7385 7.8842 14.8599 7.83387C14.9813 7.78355 15.1114 7.75765 15.2428 7.75765C15.3742 7.75765 15.5043 7.78355 15.6257 7.83387C15.7471 7.8842 15.8574 7.95696 15.9503 8.04993ZM13.3633 2.78493C13.8113 4.13093 13.5713 5.60493 13.2913 6.63493C13.123 7.27708 12.8919 7.90109 12.6013 8.49793C12.4829 8.7353 12.275 8.91591 12.0234 9.00002C11.7719 9.08413 11.4972 9.06485 11.2598 8.94643C11.0224 8.82801 10.8418 8.62015 10.7577 8.36857C10.6736 8.11699 10.6929 7.8423 10.8113 7.60493C11.0432 7.12549 11.2274 6.62441 11.3613 6.10893C11.5883 5.27693 11.7023 4.37393 11.5273 3.63393L11.4663 3.41793C11.4227 3.29287 11.4044 3.1604 11.4124 3.02821C11.4205 2.89602 11.4547 2.76674 11.5131 2.64787C11.5715 2.52901 11.6529 2.42293 11.7527 2.3358C11.8524 2.24866 11.9685 2.1822 12.0941 2.14028C12.2197 2.09836 12.3524 2.08182 12.4845 2.0916C12.6166 2.10138 12.7454 2.13731 12.8635 2.19728C12.9815 2.25725 13.0865 2.34008 13.1723 2.44096C13.2581 2.54184 13.323 2.65876 13.3633 2.78493ZM18.7783 5.22293C18.9658 5.41046 19.0711 5.66477 19.0711 5.92993C19.0711 6.1951 18.9658 6.44941 18.7783 6.63693L18.0713 7.34393C17.9791 7.43944 17.8687 7.51563 17.7467 7.56804C17.6247 7.62044 17.4935 7.64803 17.3607 7.64918C17.2279 7.65034 17.0962 7.62504 16.9733 7.57476C16.8504 7.52447 16.7388 7.45022 16.6449 7.35633C16.551 7.26244 16.4768 7.15078 16.4265 7.02789C16.3762 6.90499 16.3509 6.77331 16.352 6.64053C16.3532 6.50775 16.3808 6.37653 16.4332 6.25453C16.4856 6.13253 16.5618 6.02218 16.6573 5.92993L17.3643 5.22293C17.5518 5.03546 17.8061 4.93015 18.0713 4.93015C18.3365 4.93015 18.5908 5.03546 18.7783 5.22293Z" fill="#CDD9FF"/>
</svg>
