<svg width="32" height="32" viewBox="0 0 32 32" fill="none" xmlns="http://www.w3.org/2000/svg">
<rect width="32" height="32" rx="16" fill="black" fill-opacity="0.5"/>
<path d="M18.4666 22.0667L12.85 16.4667C12.7833 16.4 12.7362 16.3278 12.7086 16.25C12.6806 16.1722 12.6666 16.0889 12.6666 16C12.6666 15.9111 12.6806 15.8278 12.7086 15.75C12.7362 15.6722 12.7833 15.6 12.85 15.5333L18.4666 9.91668C18.6222 9.76113 18.8166 9.68335 19.05 9.68335C19.2833 9.68335 19.4833 9.76668 19.65 9.93335C19.8166 10.1 19.9 10.2945 19.9 10.5167C19.9 10.7389 19.8166 10.9333 19.65 11.1L14.75 16L19.65 20.9C19.8055 21.0556 19.8833 21.2471 19.8833 21.4747C19.8833 21.7027 19.8 21.9 19.6333 22.0667C19.4666 22.2334 19.2722 22.3167 19.05 22.3167C18.8278 22.3167 18.6333 22.2334 18.4666 22.0667Z" fill="white"/>
</svg>
