<svg width="56" height="56" viewBox="0 0 56 56" fill="none" xmlns="http://www.w3.org/2000/svg">
<path d="M9.33366 11.6667H39.667V28H44.3337V11.6667C44.3337 9.093 42.2407 7 39.667 7H9.33366C6.75999 7 4.66699 9.093 4.66699 11.6667V39.6667C4.66699 42.2403 6.75999 44.3333 9.33366 44.3333H28.0003V39.6667H9.33366V11.6667Z" fill="url(#paint0_linear_2141_519)"/>
<path d="M18.667 25.6667L11.667 35H37.3337L28.0003 21L21.0003 30.3333L18.667 25.6667Z" fill="url(#paint1_linear_2141_519)"/>
<path d="M44.3337 32.6666H39.667V39.6666H32.667V44.3333H39.667V51.3333H44.3337V44.3333H51.3337V39.6666H44.3337V32.6666Z" fill="url(#paint2_linear_2141_519)"/>
<defs>
<linearGradient id="paint0_linear_2141_519" x1="24.5003" y1="7" x2="24.5003" y2="44.3333" gradientUnits="userSpaceOnUse">
<stop stop-color="#AC8AF7"/>
<stop offset="1" stop-color="#6E4CEE"/>
</linearGradient>
<linearGradient id="paint1_linear_2141_519" x1="24.5003" y1="21" x2="24.5003" y2="35" gradientUnits="userSpaceOnUse">
<stop stop-color="#AC8AF7"/>
<stop offset="1" stop-color="#6E4CEE"/>
</linearGradient>
<linearGradient id="paint2_linear_2141_519" x1="42.0003" y1="32.6666" x2="42.0003" y2="51.3333" gradientUnits="userSpaceOnUse">
<stop stop-color="#AC8AF7"/>
<stop offset="1" stop-color="#6E4CEE"/>
</linearGradient>
</defs>
</svg>
