<svg width="48" height="64" viewBox="0 0 48 64" fill="none" xmlns="http://www.w3.org/2000/svg">
<path d="M36.765 39.95V63.4839C36.765 63.5762 36.7391 63.6668 36.6901 63.7462C36.6412 63.8255 36.5709 63.8907 36.4868 63.9349C36.4026 63.979 36.3077 64.0004 36.2119 63.997C36.1162 63.9935 36.0232 63.9652 35.9427 63.9151L33.7052 62.5174L24.2899 56.6378C24.2035 56.584 24.1029 56.5553 24.0001 56.5553C23.8972 56.5553 23.7966 56.584 23.7103 56.6378L14.2949 62.5189L12.0579 63.9166C11.9774 63.9668 11.8844 63.9952 11.7886 63.9988C11.6927 64.0023 11.5977 63.9809 11.5135 63.9367C11.4292 63.8926 11.3589 63.8273 11.3099 63.7479C11.2609 63.6685 11.2351 63.5778 11.2351 63.4854V39.9514L36.765 39.95Z" fill="#869FF9"/>
<g style="mix-blend-mode:multiply">
<path d="M14.2949 39.95V62.5189L12.0579 63.9166C11.9774 63.9668 11.8844 63.9952 11.7886 63.9988C11.6927 64.0023 11.5977 63.9809 11.5135 63.9367C11.4292 63.8926 11.3589 63.8273 11.3099 63.7479C11.2609 63.6685 11.2351 63.5778 11.2351 63.4854V39.9514L14.2949 39.95Z" fill="#E6E6E6"/>
</g>
<g style="mix-blend-mode:screen">
<path d="M36.7651 39.95V63.4839C36.7651 63.5762 36.7392 63.6668 36.6903 63.7462C36.6413 63.8256 36.571 63.8907 36.4869 63.9349C36.4027 63.979 36.3078 64.0005 36.212 63.997C36.1163 63.9935 36.0233 63.9652 35.9428 63.9151L33.7053 62.5174V39.95H36.7651Z" fill="#4D4D4D"/>
</g>
<g style="mix-blend-mode:color-burn">
<path d="M36.765 39.95V43.9774L33.7052 45.0495L24.9125 48.1336C24.3231 48.3401 23.677 48.3401 23.0876 48.1336L14.2949 45.0495L11.2351 43.9764V39.949L36.765 39.95Z" fill="#CCCCCC"/>
</g>
<path d="M47.9596 25.3635L45.3867 11.3023C45.2777 10.7073 44.9547 10.1682 44.4743 9.77977L33.1236 0.60301C32.6431 0.214569 32.036 0.0016329 31.4088 0.00158691H16.5892C15.9622 0.00166446 15.3553 0.214604 14.875 0.60301L3.5237 9.77977C3.04411 10.1684 2.72197 10.7075 2.61385 11.3023L0.0409985 25.3635C-0.0678755 25.9587 0.0443374 26.5718 0.357933 27.0952L7.76673 39.4607C8.08041 39.9838 8.57529 40.3839 9.16452 40.5905L23.0881 45.4749C23.6775 45.6816 24.3236 45.6816 24.913 45.4749L38.8397 40.5905C39.4288 40.3839 39.9235 39.9838 40.2369 39.4607L47.6452 27.0952C47.9591 26.5719 48.0713 25.9587 47.9622 25.3635H47.9596Z" fill="url(#paint0_linear_2114_14)"/>
<g style="mix-blend-mode:multiply">
<path d="M47.9596 25.3638L47.9422 25.2651C47.8841 25.5297 47.783 25.7838 47.6426 26.018L40.2344 38.3844C39.9211 38.9079 39.4263 39.3081 38.8371 39.5148L24.9104 44.3992C24.321 44.6059 23.6749 44.6059 23.0856 44.3992L9.16194 39.5148C8.57256 39.3081 8.07763 38.9079 7.76415 38.3844L0.358422 26.019C0.218137 25.7848 0.117216 25.5307 0.0594075 25.2661L0.0414868 25.3648C-0.0673872 25.96 0.0448257 26.5731 0.358422 27.0965L7.76722 39.462C8.0809 39.9852 8.57578 40.3852 9.16501 40.5918L23.0886 45.4762C23.678 45.6829 24.3241 45.6829 24.9134 45.4762L38.8401 40.5918C39.4293 40.3852 39.924 39.9852 40.2374 39.462L47.6457 27.0965C47.9596 26.5732 48.0718 25.96 47.9626 25.3648L47.9596 25.3638Z" fill="#E6E6E6"/>
</g>
<path d="M41.1767 11.6869L31.7725 4.08355C31.3148 3.71309 30.736 3.51008 30.1382 3.51025H17.8627C17.2648 3.51009 16.6859 3.71309 16.2279 4.08355L6.8243 11.6869C6.36596 12.057 6.05775 12.571 5.95388 13.1385L3.82238 24.7875C3.71847 25.3549 3.82543 25.9394 4.12447 26.4383L10.2619 36.6823C10.5606 37.1809 11.0319 37.5624 11.5932 37.7598L23.1283 41.8055C23.6905 42.0025 24.3068 42.0025 24.8691 41.8055L36.4042 37.7598C36.9656 37.5625 37.4369 37.181 37.7354 36.6823L43.8734 26.4383C44.172 25.9393 44.2789 25.3549 44.1755 24.7875L42.0435 13.1385C41.9406 12.5715 41.6337 12.0575 41.1767 11.6869Z" fill="#F3F8FF"/>
<path d="M12.0005 19.652V14.0463H13.1848V18.7003H16.1293V19.6525L12.0005 19.652Z" fill="#869FF9"/>
<path d="M16.9741 19.652V13.9999H21.3231V14.956H18.1584V16.2092H21.103V17.1614H18.1584V18.7003H21.4353V19.6525L16.9741 19.652Z" fill="#869FF9"/>
<path d="M23.936 19.652L21.8394 13.9999H23.1235L24.6083 18.1832L26.0445 13.9999H27.3005L25.2012 19.652H23.936Z" fill="#869FF9"/>
<path d="M27.9019 19.652V13.9999H32.2539V14.956H29.0882V16.2092H32.0333V17.1614H29.0882V18.7003H32.3651V19.6525L27.9019 19.652Z" fill="#869FF9"/>
<path d="M33.4019 19.652V14.0463H34.5861V18.7003H37.5307V19.6525L33.4019 19.652Z" fill="#869FF9"/>
<path d="M26.0005 33.3688H24.255V26.8939C23.6095 27.4855 22.8399 27.9302 22.0005 28.1965V26.6375C22.4562 26.4906 22.951 26.2122 23.4848 25.8025C24.0187 25.3928 24.3851 24.9149 24.5841 24.3688H26.0005V33.3688Z" fill="#869FF9"/>
<defs>
<linearGradient id="paint0_linear_2114_14" x1="7.08678" y1="6.33355" x2="39.6596" y2="40.1368" gradientUnits="userSpaceOnUse">
<stop stop-color="#DEECFC"/>
<stop offset="1" stop-color="#B4C1EA"/>
</linearGradient>
</defs>
</svg>
