<svg width="24" height="33" viewBox="0 0 24 33" fill="none" xmlns="http://www.w3.org/2000/svg">
<g clip-path="url(#clip0_2141_453)">
<path d="M18.3824 20.5994V32.7341C18.3824 32.7817 18.3694 32.8284 18.3449 32.8693C18.3204 32.9103 18.2852 32.9439 18.2431 32.9666C18.201 32.9893 18.1535 33.0004 18.1056 32.9985C18.0577 32.9967 18.0112 32.982 17.971 32.9562L16.8525 32.2354L12.1448 29.203C12.1017 29.1753 12.0513 29.1605 11.9999 29.1605C11.9485 29.1605 11.8982 29.1753 11.855 29.203L7.14733 32.2354L6.02833 32.9569C5.98813 32.9828 5.94164 32.9975 5.89376 32.9993C5.84587 33.0012 5.79838 32.9901 5.75628 32.9674C5.71418 32.9447 5.67904 32.9111 5.65456 32.8701C5.63008 32.8292 5.61716 32.7824 5.61719 32.7348V20.6001L18.3824 20.5994Z" fill="#58AAD3"/>
<g style="mix-blend-mode:multiply">
<path d="M7.14733 20.5994V32.2362L6.02833 32.9569C5.98813 32.9828 5.94164 32.9975 5.89376 32.9993C5.84587 33.0012 5.79838 32.9901 5.75628 32.9674C5.71418 32.9447 5.67904 32.9111 5.65456 32.8701C5.63008 32.8292 5.61716 32.7824 5.61719 32.7348V20.6001L7.14733 20.5994Z" fill="#EFE4F4"/>
</g>
<g style="mix-blend-mode:screen">
<path d="M18.3824 20.5994V32.7341C18.3824 32.7817 18.3694 32.8284 18.3449 32.8693C18.3204 32.9103 18.2853 32.9439 18.2431 32.9666C18.201 32.9893 18.1535 33.0004 18.1056 32.9985C18.0578 32.9967 18.0112 32.982 17.971 32.9562L16.8525 32.2354V20.5994H18.3824Z" fill="#684486"/>
</g>
<g style="mix-blend-mode:color-burn">
<path d="M18.3828 20.5994V22.676L16.8529 23.2288L12.4565 24.819C12.1618 24.9255 11.8388 24.9255 11.5441 24.819L7.14775 23.2288L5.61914 22.676V20.5994H18.3828Z" fill="#C8EBDB"/>
</g>
<path d="M23.9799 13.0785L22.6945 5.82822C22.6399 5.52132 22.4784 5.2433 22.2383 5.04289L16.5626 0.311126C16.3226 0.110487 16.0191 0.000325014 15.7055 0H8.29671C7.98313 2.37121e-05 7.67957 0.109824 7.43935 0.310113L1.76396 5.04188C1.52379 5.24228 1.36229 5.5203 1.30776 5.8272L0.0213328 13.0775C-0.0332871 13.3843 0.0228306 13.7004 0.179799 13.9702L3.88394 20.3461C4.04058 20.616 4.28796 20.8223 4.58258 20.9289L11.5459 23.4474C11.8406 23.5538 12.1636 23.5538 12.4583 23.4474L19.4201 20.9289C19.7148 20.8224 19.9623 20.616 20.119 20.3461L23.8209 13.9707C23.9777 13.7009 24.0338 13.3848 23.9793 13.078L23.9799 13.0785Z" fill="url(#paint0_linear_2141_453)"/>
<g style="mix-blend-mode:multiply">
<path d="M23.9799 13.0785L23.971 13.0276C23.942 13.1641 23.8916 13.2952 23.8214 13.4161L20.117 19.7917C19.9603 20.0616 19.7128 20.268 19.4181 20.3745L12.4563 22.8931C12.1617 22.9997 11.8386 22.9997 11.5439 22.8931L4.58058 20.3745C4.28596 20.268 4.03858 20.0616 3.88194 19.7917L0.178822 13.4163C0.108597 13.2955 0.0580483 13.1644 0.0290564 13.0278L0.0203562 13.0787C-0.0342637 13.3855 0.021854 13.7017 0.178822 13.9714L3.88296 20.3473C4.03961 20.6172 4.28699 20.8236 4.5816 20.9301L11.545 23.4487C11.8397 23.555 12.1626 23.555 12.4574 23.4487L19.4192 20.9301C19.7139 20.8236 19.9613 20.6172 20.1181 20.3473L23.8209 13.9706C23.9777 13.7008 24.0338 13.3848 23.9794 13.078L23.9799 13.0785Z" fill="#EFE4F4"/>
</g>
<path d="M20.5882 6.02616L15.8864 2.10566C15.6574 1.91464 15.368 1.80997 15.069 1.81006H8.93125C8.63234 1.80997 8.34298 1.91464 8.11408 2.10566L3.41203 6.02616C3.18284 6.21697 3.02873 6.482 2.97682 6.7746L1.91081 12.7811C1.8591 13.0737 1.91257 13.375 2.06186 13.6324L5.13264 18.9144C5.28184 19.1716 5.51752 19.3683 5.79826 19.47L11.5658 21.556C11.8469 21.6579 12.1551 21.6579 12.4362 21.556L18.2038 19.47C18.4845 19.3683 18.7201 19.1716 18.8694 18.9144L21.9381 13.6324C22.0876 13.3751 22.1411 13.0737 22.0892 12.7811L21.0234 6.7746C20.9715 6.482 20.8174 6.21699 20.5882 6.02616Z" fill="#F2FFFD"/>
<path d="M5.5 10.1329V7.24243H6.09214V9.64241H7.56443V10.1334L5.5 10.1329Z" fill="#58AAD3"/>
<path d="M7.98535 10.1329V7.21875H10.1593V7.71177H8.57698V8.35768H10.0493V8.84867H8.57698V9.64238H10.2154V10.1334L7.98535 10.1329Z" fill="#58AAD3"/>
<path d="M11.4651 10.1329L10.417 7.21875H11.059L11.8015 9.37552L12.5183 7.21875H13.1465L12.0969 10.1329H11.4651Z" fill="#58AAD3"/>
<path d="M13.4502 10.1329V7.21875H15.6247V7.71177H14.0423V8.35768H15.5146V8.84867H14.0423V9.64238H15.6808V10.1334L13.4502 10.1329Z" fill="#58AAD3"/>
<path d="M16.1992 10.1329V7.24243H16.7914V9.64241H18.2637V10.1334L16.1992 10.1329Z" fill="#58AAD3"/>
<path d="M13.4162 13.5077L12.5826 13.6008C12.5622 13.4272 12.5091 13.2991 12.4232 13.2164C12.3783 13.1745 12.3257 13.142 12.2684 13.1207C12.211 13.0994 12.1501 13.0898 12.0891 13.0923C11.9074 13.0923 11.7539 13.175 11.6288 13.3404C11.5036 13.5058 11.4245 13.8495 11.3914 14.3714C11.6058 14.1149 11.8724 13.9867 12.1914 13.9869C12.5506 13.9869 12.8586 14.1254 13.1153 14.4023C13.372 14.6792 13.5002 15.0367 13.5 15.4748C13.5 15.9404 13.3651 16.3136 13.0952 16.5943C12.8254 16.8749 12.4791 17.0154 12.0562 17.0156C11.6029 17.0156 11.2303 16.8374 10.9383 16.4809C10.6463 16.1243 10.5002 15.54 10.5 14.7279C10.5 13.8947 10.6522 13.2943 10.9567 12.9267C11.2612 12.5591 11.6565 12.3752 12.1427 12.375C12.484 12.375 12.7665 12.4716 12.9904 12.6647C13.2142 12.8578 13.3561 13.1388 13.4162 13.5077ZM11.4637 15.408C11.4637 15.6913 11.5282 15.91 11.6571 16.0638C11.7859 16.2177 11.933 16.2946 12.0983 16.2946C12.1746 16.2958 12.2501 16.2794 12.3191 16.2467C12.3882 16.214 12.4489 16.1657 12.4968 16.1057C12.6031 15.9798 12.6562 15.773 12.656 15.4855C12.656 15.1902 12.5987 14.9737 12.4843 14.836C12.4332 14.7724 12.3688 14.721 12.2958 14.6854C12.2228 14.6498 12.143 14.631 12.0619 14.6301C11.9809 14.6292 11.9007 14.6464 11.8269 14.6805C11.7532 14.7145 11.6878 14.7645 11.6354 14.827C11.5209 14.9589 11.4637 15.1526 11.4637 15.408Z" fill="#58AAD3"/>
</g>
<defs>
<linearGradient id="paint0_linear_2141_453" x1="3.54345" y1="3.26594" x2="20.3501" y2="20.1789" gradientUnits="userSpaceOnUse">
<stop stop-color="#DDF8FF"/>
<stop offset="1" stop-color="#AFEAF9"/>
</linearGradient>
<clipPath id="clip0_2141_453">
<rect width="24" height="33" fill="white"/>
</clipPath>
</defs>
</svg>
