<svg width="48" height="64" viewBox="0 0 48 64" fill="none" xmlns="http://www.w3.org/2000/svg">
<path d="M36.7643 39.9505V63.4844C36.7645 63.5768 36.7389 63.6676 36.6901 63.7471C36.6412 63.8266 36.571 63.892 36.4869 63.9363C36.4027 63.9805 36.3077 64.0021 36.2119 63.9986C36.1161 63.9952 36.023 63.9668 35.9425 63.9166L33.705 62.5189L24.2891 56.6379C24.2028 56.584 24.1022 56.5553 23.9993 56.5553C23.8965 56.5553 23.7958 56.584 23.7095 56.6379L14.2942 62.5189L12.0572 63.9166C11.9767 63.9669 11.8837 63.9953 11.7879 63.9988C11.6922 64.0024 11.5972 63.981 11.5129 63.9369C11.4287 63.8928 11.3584 63.8277 11.3094 63.7483C11.2603 63.6689 11.2344 63.5783 11.2344 63.4859V39.952L36.7643 39.9505Z" fill="#8CC63F"/>
<g style="mix-blend-mode:multiply">
<path d="M14.2942 39.9505V62.5189L12.0572 63.9166C11.9767 63.9669 11.8837 63.9953 11.7879 63.9988C11.6922 64.0024 11.5972 63.981 11.5129 63.9369C11.4287 63.8928 11.3584 63.8277 11.3094 63.7483C11.2603 63.6689 11.2344 63.5783 11.2344 63.4859V39.952L14.2942 39.9505Z" fill="#E6E6E6"/>
</g>
<g style="mix-blend-mode:screen">
<path d="M36.7643 39.9505V63.4844C36.7646 63.5768 36.739 63.6676 36.6902 63.7471C36.6413 63.8266 36.5711 63.892 36.487 63.9363C36.4028 63.9805 36.3078 64.0021 36.212 63.9986C36.1161 63.9952 36.0231 63.9668 35.9426 63.9166L33.7051 62.5189V39.9505H36.7643Z" fill="#4D4D4D"/>
</g>
<g style="mix-blend-mode:color-burn">
<path d="M36.7643 39.9505V43.9779L33.7045 45.05L24.9117 48.1341C24.3223 48.3407 23.6763 48.3407 23.0869 48.1341L14.2942 45.05L11.2344 43.9774V39.95L36.7643 39.9505Z" fill="#CCCCCC"/>
</g>
<path d="M47.9591 25.3643L45.3862 11.3032C45.2772 10.708 44.9542 10.1688 44.4738 9.78013L33.1231 0.603373C32.6426 0.214932 32.0355 0.00199911 31.4083 0.00195312H16.5887C15.9617 0.00203067 15.3547 0.214967 14.8745 0.603373L3.52319 9.78013C3.04357 10.169 2.72143 10.7082 2.61334 11.3032L0.0404902 25.3643C-0.0683485 25.9594 0.0438659 26.5724 0.357425 27.0956L7.76622 39.461C8.07971 39.9845 8.57463 40.3847 9.16401 40.5914L23.0876 45.4758C23.6771 45.682 24.323 45.682 24.9124 45.4758L38.8391 40.5914C39.4284 40.3847 39.9231 39.9844 40.2364 39.461L47.6447 27.0956C47.9586 26.5725 48.0709 25.9594 47.9616 25.3643H47.9591Z" fill="#A1D353"/>
<g style="mix-blend-mode:multiply">
<path d="M47.9595 25.3644L47.9421 25.2657C47.8842 25.5305 47.7831 25.7847 47.6426 26.0191L40.2343 38.3845C39.921 38.9079 39.4263 39.3082 38.8371 39.5148L24.9104 44.3992C24.321 44.6059 23.6749 44.6059 23.0855 44.3992L9.16192 39.5148C8.57254 39.3082 8.07761 38.908 7.76413 38.3845L0.358402 26.0196C0.218129 25.7852 0.117211 25.5309 0.0593875 25.2662L0.0414668 25.3649C-0.0673719 25.9599 0.0448425 26.5729 0.358402 27.0961L7.7672 39.4615C8.08068 39.985 8.57561 40.3852 9.16499 40.5919L23.0886 45.4763C23.6781 45.6825 24.324 45.6825 24.9134 45.4763L38.8401 40.5919C39.4294 40.3852 39.9241 39.985 40.2374 39.4615L47.6457 27.0961C47.9596 26.573 48.0719 25.9599 47.9626 25.3649L47.9595 25.3644Z" fill="#E6E6E6"/>
</g>
<path d="M41.1762 11.6871L31.7721 4.08367C31.3143 3.7132 30.7355 3.5102 30.1377 3.51038H17.8623C17.2643 3.51021 16.6854 3.7132 16.2274 4.08367L6.82381 11.6871C6.36547 12.0571 6.05726 12.5711 5.95339 13.1386L3.82189 24.7876C3.71798 25.355 3.82494 25.9395 4.12398 26.4385L10.262 36.6824C10.5605 37.1812 11.0318 37.5627 11.5932 37.7599L23.1283 41.8056C23.6904 42.0032 24.307 42.0032 24.8691 41.8056L36.4042 37.7599C36.9657 37.5628 37.4371 37.1813 37.7354 36.6824L43.8734 26.4385C44.172 25.9394 44.2789 25.355 44.1755 24.7876L42.0435 13.1386C41.9405 12.5715 41.6334 12.0576 41.1762 11.6871Z" fill="#F6FFF3"/>
<path d="M12 19.6516V14.0459H13.1843V18.7004H16.1289V19.6526L12 19.6516Z" fill="#8CC63F"/>
<path d="M16.9736 19.6516V14H21.3227V14.9562H18.1579V16.2088H21.1025V17.1611H18.1579V18.7004H21.4348V19.6526L16.9736 19.6516Z" fill="#8CC63F"/>
<path d="M23.9356 19.6516L21.8389 14H23.123L24.6078 18.1828L26.044 14H27.3L25.2007 19.6516H23.9356Z" fill="#8CC63F"/>
<path d="M27.9014 19.6516V14H32.2535V14.9562H29.0877V16.2088H32.0328V17.1611H29.0877V18.7004H32.3646V19.6526L27.9014 19.6516Z" fill="#8CC63F"/>
<path d="M33.4014 19.6516V14.0459H34.5856V18.7004H37.5302V19.6526L33.4014 19.6516Z" fill="#8CC63F"/>
<path d="M24.9832 33V31.1962H21V29.6922L25.2225 24H26.7893V29.6862H28V31.1949H26.7893V32.9987L24.9832 33ZM24.9832 29.6862V26.6231L22.7463 29.6862H24.9832Z" fill="#8CC63F"/>
</svg>
