<svg width="24" height="32" viewBox="0 0 24 32" fill="none" xmlns="http://www.w3.org/2000/svg">
<path d="M18.3821 19.9753V31.7423C18.3823 31.7885 18.3694 31.8339 18.345 31.8737C18.3206 31.9134 18.2855 31.9461 18.2434 31.9682C18.2014 31.9904 18.1539 32.0011 18.1059 31.9994C18.058 31.9977 18.0115 31.9835 17.9712 31.9584L16.8525 31.2596L12.1446 28.319C12.1014 28.2921 12.0511 28.2778 11.9997 28.2778C11.9482 28.2778 11.8979 28.2921 11.8548 28.319L7.14708 31.2596L6.02859 31.9584C5.98837 31.9835 5.94186 31.9977 5.89397 31.9995C5.84609 32.0013 5.79858 31.9906 5.75647 31.9685C5.71436 31.9465 5.6792 31.9139 5.65469 31.8742C5.63017 31.8346 5.61722 31.7892 5.61719 31.7431V19.9761L18.3821 19.9753Z" fill="#8CC63F"/>
<g style="mix-blend-mode:multiply">
<path d="M7.14708 19.9753V31.2596L6.02859 31.9584C5.98837 31.9835 5.94186 31.9977 5.89397 31.9995C5.84609 32.0013 5.79858 31.9906 5.75647 31.9685C5.71436 31.9465 5.6792 31.9139 5.65469 31.8742C5.63017 31.8346 5.61722 31.7892 5.61719 31.7431V19.9761L7.14708 19.9753Z" fill="#E6E6E6"/>
</g>
<g style="mix-blend-mode:screen">
<path d="M18.3822 19.9753V31.7423C18.3823 31.7885 18.3695 31.8339 18.3451 31.8737C18.3207 31.9134 18.2856 31.9461 18.2435 31.9682C18.2014 31.9904 18.1539 32.0011 18.106 31.9994C18.0581 31.9977 18.0115 31.9835 17.9713 31.9584L16.8525 31.2596V19.9753H18.3822Z" fill="#4D4D4D"/>
</g>
<g style="mix-blend-mode:color-burn">
<path d="M18.3821 19.9752V21.9889L16.8522 22.525L12.4559 24.067C12.1612 24.1703 11.8382 24.1703 11.5435 24.067L7.14708 22.525L5.61719 21.9887V19.975L18.3821 19.9752Z" fill="#CCCCCC"/>
</g>
<path d="M23.9795 12.6823L22.6931 5.65171C22.6386 5.35412 22.4771 5.08452 22.2369 4.89019L16.5615 0.301809C16.3213 0.107588 16.0177 0.00112163 15.7042 0.00109863H8.29434C7.98084 0.00113741 7.67737 0.107606 7.43724 0.301809L1.76159 4.89019C1.52178 5.08462 1.36072 5.35424 1.30667 5.65171L0.0202451 12.6823C-0.0341742 12.9798 0.021933 13.2863 0.178713 13.5479L3.88311 19.7306C4.03985 19.9924 4.28732 20.1925 4.58201 20.2958L11.5438 22.738C11.8385 22.8411 12.1615 22.8411 12.4562 22.738L19.4196 20.2958C19.7142 20.1925 19.9616 19.9923 20.1182 19.7306L23.8224 13.5479C23.9793 13.2864 24.0354 12.9798 23.9808 12.6823H23.9795Z" fill="#A1D353"/>
<g style="mix-blend-mode:multiply">
<path d="M23.9793 12.6823L23.9706 12.6329C23.9416 12.7653 23.891 12.8925 23.8208 13.0096L20.1167 19.1923C19.96 19.454 19.7127 19.6542 19.418 19.7575L12.4547 22.1997C12.16 22.3031 11.837 22.3031 11.5423 22.1997L4.58047 19.7575C4.28578 19.6542 4.03832 19.4541 3.88158 19.1923L0.178713 13.0099C0.108576 12.8927 0.0581173 12.7656 0.0292055 12.6332L0.0202451 12.6825C-0.0341742 12.98 0.021933 13.2865 0.178713 13.5481L3.88311 19.7309C4.03985 19.9926 4.28732 20.1927 4.58201 20.296L11.5438 22.7382C11.8385 22.8413 12.1615 22.8413 12.4562 22.7382L19.4196 20.296C19.7142 20.1927 19.9616 19.9926 20.1182 19.7309L23.8224 13.5481C23.9793 13.2866 24.0354 12.98 23.9808 12.6825L23.9793 12.6823Z" fill="#E6E6E6"/>
</g>
<path d="M20.5881 5.84359L15.886 2.0419C15.6571 1.85666 15.3678 1.75516 15.0689 1.75525H8.93113C8.63214 1.75517 8.3427 1.85666 8.1137 2.0419L3.41191 5.84359C3.18274 6.02863 3.02863 6.28562 2.9767 6.56934L1.91095 12.3939C1.85899 12.6776 1.91247 12.9698 2.06199 13.2193L5.13098 18.3413C5.28023 18.5907 5.5159 18.7814 5.7966 18.88L11.5641 20.9029C11.8452 21.0016 12.1535 21.0016 12.4346 20.9029L18.2021 18.88C18.4828 18.7815 18.7185 18.5907 18.8677 18.3413L21.9367 13.2193C22.086 12.9697 22.1395 12.6776 22.0878 12.3939L21.0218 6.56934C20.9702 6.28582 20.8167 6.02885 20.5881 5.84359Z" fill="#F6FFF3"/>
<path d="M6 9.82581V7.02295H6.59214V9.3502H8.06443V9.8263L6 9.82581Z" fill="#8CC63F"/>
<path d="M8.48633 9.8258V7H10.6608V7.47808H9.07847V8.10442H10.5508V8.58053H9.07847V9.35019H10.7169V9.8263L8.48633 9.8258Z" fill="#8CC63F"/>
<path d="M11.9683 9.8258L10.9199 7H11.562L12.3044 9.09141L13.0225 7H13.6505L12.6009 9.8258H11.9683Z" fill="#8CC63F"/>
<path d="M13.9512 9.8258V7H16.1272V7.47808H14.5443V8.10442H16.0169V8.58053H14.5443V9.35019H16.1828V9.8263L13.9512 9.8258Z" fill="#8CC63F"/>
<path d="M16.7012 9.82581V7.02295H17.2933V9.3502H18.7656V9.8263L16.7012 9.82581Z" fill="#8CC63F"/>
<path d="M12.4916 16.5V15.5981H10.5V14.8461L12.6113 12H13.3946V14.8431H14V15.5974H13.3946V16.4993L12.4916 16.5ZM12.4916 14.8431V13.3115L11.3731 14.8431H12.4916Z" fill="#8CC63F"/>
</svg>
