<svg width="24" height="32" viewBox="0 0 24 32" fill="none" xmlns="http://www.w3.org/2000/svg">
<g clip-path="url(#clip0_2141_395)">
<path d="M18.3821 19.9751V31.7421C18.3821 31.7883 18.3691 31.8336 18.3446 31.8733C18.3201 31.9129 18.285 31.9455 18.2429 31.9676C18.2007 31.9896 18.1532 32.0003 18.1053 31.9985C18.0575 31.9967 18.011 31.9825 17.9707 31.9574L16.8522 31.2586L12.1446 28.3181C12.1014 28.2911 12.0511 28.2768 11.9997 28.2768C11.9482 28.2768 11.8979 28.2911 11.8548 28.3181L7.14708 31.2586L6.02859 31.9574C5.98837 31.9825 5.94186 31.9967 5.89397 31.9985C5.84609 32.0003 5.79859 31.9896 5.75647 31.9676C5.71436 31.9455 5.6792 31.9129 5.65469 31.8733C5.63018 31.8336 5.61722 31.7883 5.61719 31.7421V19.9751H18.3821Z" fill="#F9A60C"/>
<g style="mix-blend-mode:multiply">
<path d="M7.14708 19.9751V31.2593L6.02859 31.9582C5.98837 31.9833 5.94186 31.9975 5.89397 31.9993C5.84609 32.001 5.79859 31.9903 5.75647 31.9683C5.71436 31.9463 5.6792 31.9137 5.65469 31.874C5.63018 31.8343 5.61722 31.789 5.61719 31.7428V19.9758L7.14708 19.9751Z" fill="#E6E6E6"/>
</g>
<g style="mix-blend-mode:screen">
<path d="M18.3824 19.9752V31.7422C18.3824 31.7884 18.3694 31.8337 18.3449 31.8734C18.3204 31.9131 18.2853 31.9456 18.2431 31.9677C18.201 31.9897 18.1535 32.0004 18.1056 31.9986C18.0578 31.9969 18.0112 31.9827 17.971 31.9576L16.8525 31.2587V19.9752H18.3824Z" fill="#4D4D4D"/>
</g>
<g style="mix-blend-mode:color-burn">
<path d="M18.3821 19.9751V21.9888L16.8522 22.5249L12.4559 24.0669C12.1612 24.1702 11.8382 24.1702 11.5435 24.0669L7.14708 22.5249L5.61719 21.9886V19.9749L18.3821 19.9751Z" fill="#CCCCCC"/>
</g>
<path d="M23.9812 12.6822L22.6948 5.65159C22.6402 5.354 22.4787 5.0844 22.2386 4.89007L16.5632 0.301687C16.3229 0.107503 16.0194 0.00104174 15.7058 0.000976562H8.29573C7.98216 0.00104174 7.67862 0.107503 7.43837 0.301687L1.76298 4.89007C1.52282 5.0844 1.36131 5.354 1.30678 5.65159L0.0203562 12.6822C-0.0342637 12.9797 0.021854 13.2862 0.178822 13.5478L3.88322 19.7305C4.03996 19.9922 4.28743 20.1924 4.58212 20.2957L11.5439 22.7379C11.8387 22.841 12.1616 22.841 12.4563 22.7379L19.4181 20.2957C19.7128 20.1924 19.9603 19.9922 20.117 19.7305L23.8214 13.5478C23.9788 13.2864 24.0354 12.9798 23.9812 12.6822Z" fill="url(#paint0_linear_2141_395)"/>
<g style="mix-blend-mode:multiply">
<path d="M23.9809 12.6821L23.9719 12.6328C23.943 12.7652 23.8926 12.8923 23.8224 13.0095L20.118 19.192C19.9613 19.4537 19.7138 19.6538 19.4191 19.7571L12.4573 22.1993C12.1626 22.3027 11.8396 22.3027 11.5449 22.1993L4.5831 19.7571C4.28841 19.6538 4.04094 19.4537 3.8842 19.192L0.179801 13.0095C0.109665 12.8923 0.0592037 12.7652 0.0302919 12.6328L0.0213323 12.6821C-0.0332876 12.9797 0.0228332 13.2862 0.179801 13.5478L3.8842 19.7305C4.04094 19.9922 4.28841 20.1923 4.5831 20.2957L11.5449 22.7379C11.8396 22.841 12.1626 22.841 12.4573 22.7379L19.4191 20.2957C19.7138 20.1923 19.9613 19.9922 20.118 19.7305L23.8224 13.5478C23.9794 13.2862 24.0355 12.9797 23.9809 12.6821Z" fill="#E6E6E6"/>
</g>
<path d="M20.5878 5.84347L15.886 2.04177C15.6571 1.85658 15.3678 1.75508 15.0689 1.75513H8.93087C8.63197 1.75508 8.34262 1.85658 8.1137 2.04177L3.41191 5.84347C3.18274 6.02851 3.02863 6.2855 2.9767 6.56922L1.91095 12.3938C1.85899 12.6774 1.91247 12.9697 2.06199 13.2192L5.13073 18.3411C5.27998 18.5905 5.51564 18.7813 5.79634 18.8799L11.5639 20.9027C11.845 21.0015 12.1532 21.0015 12.4343 20.9027L18.2019 18.8799C18.4826 18.7813 18.7182 18.5905 18.8675 18.3411L21.9362 13.2192C22.0857 12.9697 22.1392 12.6774 22.0872 12.3938L21.0215 6.56922C20.97 6.2857 20.8164 6.02875 20.5878 5.84347Z" fill="#FFFAF3"/>
<path d="M5.5 9.82581V7.02295H6.09214V9.3502H7.56443V9.8263L5.5 9.82581Z" fill="#F9A60C"/>
<path d="M7.98633 9.8258V7H10.1608V7.47808H8.57975V8.10442H10.052V8.58053H8.57975V9.35019H10.2182V9.8263L7.98633 9.8258Z" fill="#F9A60C"/>
<path d="M11.4676 9.8258L10.418 7H11.06L11.8024 9.09141L12.5208 7H13.1488L12.0992 9.8258H11.4676Z" fill="#F9A60C"/>
<path d="M13.4521 9.8258V7H15.6267V7.47808H14.0443V8.10442H15.5166V8.58053H14.0443V9.35019H15.6827V9.8263L13.4521 9.8258Z" fill="#F9A60C"/>
<path d="M16.2012 9.82581V7.02295H16.7933V9.3502H18.2656V9.8263L16.2012 9.82581Z" fill="#F9A60C"/>
<path d="M10.5 15.2701L11.4941 15.1815C11.5223 15.3751 11.6062 15.5282 11.7458 15.6409C11.8745 15.75 12.048 15.811 12.2286 15.8105C12.3302 15.8111 12.4306 15.7916 12.5223 15.7538C12.6139 15.7159 12.6943 15.6606 12.7575 15.592C12.9017 15.4463 12.9739 15.2265 12.9741 14.9327C12.9741 14.6573 12.9025 14.4508 12.7594 14.3132C12.6895 14.2455 12.6032 14.192 12.5066 14.1563C12.41 14.1206 12.3055 14.1037 12.2004 14.1068C11.9141 14.1068 11.6574 14.2161 11.4302 14.4349L10.6207 14.3342L11.1321 12H13.7691V12.8046H11.8878L11.7317 13.5663C12.0263 13.4364 12.362 13.3927 12.688 13.4418C13.0139 13.4909 13.3125 13.6303 13.5384 13.8387C13.846 14.1158 13.9999 14.4757 13.9999 14.9183C14.0048 15.274 13.8738 15.6212 13.6271 15.9064C13.2887 16.3021 12.8192 16.5 12.2183 16.5C11.7383 16.5 11.3468 16.3889 11.0437 16.1666C10.7406 15.9443 10.5594 15.6455 10.5 15.2701Z" fill="#F9A60C"/>
</g>
<defs>
<linearGradient id="paint0_linear_2141_395" x1="3.5435" y1="3.16696" x2="19.8299" y2="20.0686" gradientUnits="userSpaceOnUse">
<stop stop-color="#FCF0DE"/>
<stop offset="1" stop-color="#EAD7B4"/>
</linearGradient>
<clipPath id="clip0_2141_395">
<rect width="24" height="32" fill="white"/>
</clipPath>
</defs>
</svg>
