<svg width="15" height="22" viewBox="0 0 15 22" fill="none" xmlns="http://www.w3.org/2000/svg">
<path d="M14.0377 8.93676L12.5842 8.56326C12.3236 9.56694 11.7714 10.4709 10.9974 11.1609C10.2233 11.8509 9.26215 12.296 8.23525 12.44C7.20835 12.5839 6.16182 12.4203 5.22786 11.9698C4.29391 11.5193 3.51444 10.802 2.98792 9.90869C2.46141 9.01536 2.21149 7.98602 2.26972 6.95071C2.32795 5.9154 2.69172 4.92058 3.31508 4.09192C3.93845 3.26326 4.79343 2.63795 5.77201 2.29499C6.7506 1.95202 7.80888 1.90679 8.81316 2.16501L9.18741 0.71226C7.7234 0.331448 6.17385 0.45402 4.78792 1.06027C3.40198 1.66652 2.26018 2.72122 1.54609 4.05479C0.831996 5.38837 0.587106 6.92334 0.850791 8.41291C1.11448 9.90248 1.87142 11.2601 2.99991 12.2675V21.5L7.49991 18.5L11.9999 21.5V12.281C12.996 11.3932 13.7054 10.229 14.0377 8.93676ZM10.4999 18.6973L7.49991 16.697L4.49991 18.6973V13.2875C5.43069 13.7551 6.45775 13.999 7.49938 13.9998C8.541 14.0005 9.56843 13.7582 10.4999 13.292V18.6973Z" fill="black"/>
</svg>
