<svg width="48" height="64" viewBox="0 0 48 64" fill="none" xmlns="http://www.w3.org/2000/svg">
<path d="M36.7643 39.95V63.484C36.7643 63.5764 36.7385 63.6671 36.6895 63.7465C36.6405 63.8259 36.5702 63.8912 36.4859 63.9353C36.4017 63.9795 36.3066 64.0009 36.2108 63.9973C36.115 63.9938 36.0219 63.9654 35.9415 63.9152L33.7045 62.5174L24.2891 56.6364C24.2028 56.5825 24.1022 56.5539 23.9993 56.5539C23.8965 56.5539 23.7958 56.5825 23.7095 56.6364L14.2942 62.5174L12.0567 63.9152C11.9762 63.9653 11.8832 63.9936 11.7874 63.997C11.6917 64.0005 11.5968 63.9791 11.5126 63.9349C11.4284 63.8908 11.3582 63.8256 11.3092 63.7463C11.2603 63.6669 11.2344 63.5763 11.2344 63.484V39.95H36.7643Z" fill="#BC59D3"/>
<g style="mix-blend-mode:multiply">
<path d="M14.2942 39.95V62.5189L12.0567 63.9167C11.9762 63.9668 11.8832 63.995 11.7874 63.9985C11.6917 64.002 11.5968 63.9805 11.5126 63.9364C11.4284 63.8923 11.3582 63.8271 11.3092 63.7477C11.2603 63.6684 11.2344 63.5778 11.2344 63.4854V39.9515L14.2942 39.95Z" fill="#F4EAE6"/>
</g>
<g style="mix-blend-mode:screen">
<path d="M36.7649 39.95V63.484C36.7649 63.5764 36.739 63.6671 36.6901 63.7465C36.6411 63.8259 36.5708 63.8912 36.4865 63.9353C36.4023 63.9795 36.3072 64.0009 36.2114 63.9973C36.1156 63.9938 36.0225 63.9654 35.9421 63.9152L33.7051 62.5174V39.95H36.7649Z" fill="#865445"/>
</g>
<g style="mix-blend-mode:color-burn">
<path d="M36.7646 39.95V43.9774L33.7049 45.0495L24.9121 48.1336C24.3227 48.3402 23.6767 48.3402 23.0873 48.1336L14.2945 45.0495L11.2373 43.9774V39.95H36.7646Z" fill="#D3CAEB"/>
</g>
<path d="M47.9588 25.3639L45.388 11.3027C45.2789 10.7077 44.9559 10.1686 44.4756 9.78016L33.1243 0.603399C32.6443 0.214281 32.0373 0.00063033 31.4101 0H16.5925C15.9653 4.5987e-05 15.3582 0.212982 14.8778 0.601423L3.52698 9.77818C3.04547 10.1668 2.72166 10.7067 2.61254 11.3027L0.0396819 25.3639C-0.0694593 25.9591 0.0427665 26.5723 0.356614 27.0956L7.7649 39.4611C8.07834 39.9842 8.57307 40.3843 9.16218 40.5909L23.0889 45.4753C23.6782 45.682 24.3243 45.682 24.9137 45.4753L38.8373 40.5909C39.4265 40.3842 39.9214 39.9842 40.2351 39.4611L47.6408 27.0946C47.9544 26.5712 48.0666 25.9581 47.9578 25.3629L47.9588 25.3639Z" fill="url(#paint0_linear_94_1225)"/>
<g style="mix-blend-mode:multiply">
<path d="M47.9588 25.3639L47.9409 25.2652C47.8831 25.5298 47.7821 25.7839 47.6418 26.0181L40.2331 38.3835C39.9196 38.907 39.4246 39.3072 38.8353 39.5138L24.9116 44.3983C24.3223 44.605 23.6762 44.605 23.0868 44.3983L9.16013 39.5138C8.57089 39.3072 8.07613 38.9069 7.76285 38.3835L0.356614 26.0191C0.216213 25.7849 0.115118 25.5308 0.0570822 25.2662L0.0396819 25.3649C-0.0694593 25.9601 0.0427665 26.5733 0.356614 27.0966L7.7649 39.462C8.07834 39.9852 8.57307 40.3852 9.16218 40.5919L23.0889 45.4763C23.6782 45.683 24.3243 45.683 24.9137 45.4763L38.8373 40.5919C39.4265 40.3852 39.9214 39.9852 40.2351 39.462L47.6408 27.0946C47.9544 26.5712 48.0666 25.9581 47.9578 25.3629L47.9588 25.3639Z" fill="#F4EAE6"/>
</g>
<path d="M41.1754 11.6871L31.7718 4.08368C31.3138 3.71321 30.735 3.51021 30.137 3.51038H17.8615C17.2637 3.5102 16.685 3.71321 16.2272 4.08368L6.82308 11.6871C6.36471 12.0571 6.05649 12.5711 5.95267 13.1386L3.82064 24.7876C3.71722 25.355 3.82416 25.9394 4.12274 26.4385L10.2643 36.6824C10.5628 37.1812 11.0342 37.5627 11.5955 37.7599L23.1306 41.8056C23.6929 42.0027 24.3092 42.0027 24.8715 41.8056L36.4066 37.7599C36.9678 37.5625 37.4391 37.181 37.7378 36.6824L43.8753 26.4385C44.1743 25.9395 44.2813 25.355 44.1774 24.7876L42.0458 13.1386C41.942 12.5711 41.6338 12.0571 41.1754 11.6871Z" fill="#F9F4FF"/>
<path d="M12 19.6521V14.0464H13.1843V18.7004H16.1289V19.6526L12 19.6521Z" fill="#BC59D3"/>
<path d="M16.9707 19.6521V14H21.3187V14.9562H18.154V16.2093H21.0985V17.1615H18.154V18.7004H21.4308V19.6526L16.9707 19.6521Z" fill="#BC59D3"/>
<path d="M23.9301 19.6521L21.8359 14H23.1201L24.6049 18.1833L26.0385 14H27.295L25.1957 19.6521H23.9301Z" fill="#BC59D3"/>
<path d="M27.9004 19.6521V14H32.2494V14.9562H29.0847V16.2093H32.0292V17.1615H29.0847V18.7004H32.3615V19.6526L27.9004 19.6521Z" fill="#BC59D3"/>
<path d="M33.3984 19.6521V14.0464H34.5827V18.7004H37.5273V19.6526L33.3984 19.6521Z" fill="#BC59D3"/>
<path d="M21 30.5068L22.675 30.3082C22.7278 30.7256 22.8713 31.0442 23.1056 31.2639C23.2236 31.3745 23.3632 31.4608 23.516 31.5176C23.6689 31.5744 23.8319 31.6006 23.9954 31.5946C24.1588 31.5885 24.3194 31.5505 24.4674 31.4826C24.6155 31.4147 24.748 31.3184 24.8572 31.1994C25.1015 30.935 25.2237 30.5784 25.2237 30.1295C25.2237 29.7043 25.1066 29.3677 24.8724 29.1196C24.7659 29.0007 24.6343 28.9058 24.4866 28.8414C24.339 28.7771 24.1787 28.7448 24.017 28.7468C23.7482 28.7553 23.4816 28.7987 23.2245 28.8758L23.4153 27.4996C23.8834 27.5112 24.2405 27.4119 24.4866 27.2016C24.6085 27.0977 24.7049 26.9685 24.7689 26.8234C24.8329 26.6783 24.8628 26.5211 24.8565 26.3633C24.8565 26.0666 24.766 25.8301 24.585 25.6539C24.4041 25.4776 24.1641 25.3895 23.8651 25.3895C23.7246 25.3871 23.5851 25.4125 23.4549 25.4641C23.3247 25.5157 23.2065 25.5926 23.1076 25.69C22.8984 25.8908 22.7712 26.1833 22.7258 26.5677L21.1314 26.3033C21.2424 25.7702 21.4097 25.3443 21.6334 25.0257C21.8693 24.6969 22.1927 24.4371 22.5686 24.2744C22.9909 24.0872 23.4503 23.9936 23.914 24.0003C24.7643 24.0003 25.4467 24.265 25.9615 24.7942C26.3842 25.2272 26.5955 25.716 26.5955 26.2607C26.5955 27.0346 26.1625 27.652 25.2964 28.1129C25.7851 28.2041 26.2249 28.4616 26.5374 28.8397C26.8456 29.2168 26.9997 29.6719 26.9997 30.205C27.005 30.5756 26.9304 30.9431 26.7808 31.2838C26.6311 31.6244 26.4098 31.9305 26.1312 32.1823C25.5526 32.7279 24.8323 33.0004 23.9702 33C23.1534 33 22.4762 32.7706 21.9385 32.3119C21.4009 31.8531 21.0881 31.2514 21 30.5068Z" fill="#BC59D3"/>
<defs>
<linearGradient id="paint0_linear_94_1225" x1="7.08598" y1="6.33394" x2="39.6588" y2="40.1372" gradientUnits="userSpaceOnUse">
<stop stop-color="#F5DFFF"/>
<stop offset="1" stop-color="#E2B1F9"/>
</linearGradient>
</defs>
</svg>
