<svg width="24" height="32" viewBox="0 0 24 32" fill="none" xmlns="http://www.w3.org/2000/svg">
<g clip-path="url(#clip0_2141_272)">
<path d="M18.3821 19.975V31.7419C18.3822 31.7882 18.3692 31.8335 18.3447 31.8732C18.3202 31.9129 18.2851 31.9455 18.243 31.9676C18.2008 31.9897 18.1533 32.0004 18.1054 31.9986C18.0575 31.9969 18.011 31.9827 17.9707 31.9576L16.8522 31.2587L12.1446 28.3182C12.1014 28.2912 12.0511 28.2769 11.9997 28.2769C11.9482 28.2769 11.8979 28.2912 11.8548 28.3182L7.14708 31.2587L6.02859 31.9576C5.98835 31.9827 5.94182 31.9969 5.89391 31.9986C5.846 32.0004 5.79848 31.9897 5.75636 31.9676C5.71424 31.9455 5.67908 31.9129 5.65459 31.8732C5.63009 31.8335 5.61717 31.7882 5.61719 31.7419V19.975H18.3821Z" fill="#F94E36"/>
<g style="mix-blend-mode:multiply">
<path d="M7.14708 19.975V31.2594L6.02859 31.9583C5.98835 31.9834 5.94182 31.9976 5.89391 31.9994C5.846 32.0011 5.79848 31.9904 5.75636 31.9684C5.71424 31.9463 5.67908 31.9137 5.65459 31.874C5.63009 31.8342 5.61717 31.7889 5.61719 31.7427V19.9757L7.14708 19.975Z" fill="#E6E6E6"/>
</g>
<g style="mix-blend-mode:screen">
<path d="M18.3824 19.975V31.7419C18.3824 31.7882 18.3695 31.8335 18.345 31.8732C18.3205 31.9129 18.2854 31.9455 18.2433 31.9676C18.2011 31.9897 18.1536 32.0004 18.1057 31.9986C18.0578 31.9969 18.0113 31.9827 17.971 31.9576L16.8525 31.2587V19.975H18.3824Z" fill="#4D4D4D"/>
</g>
<g style="mix-blend-mode:color-burn">
<path d="M18.3821 19.975V21.9887L16.8522 22.5247L12.4559 24.0668C12.1612 24.1701 11.8382 24.1701 11.5435 24.0668L7.14708 22.5247L5.61719 21.9882V19.9745L18.3821 19.975Z" fill="#CCCCCC"/>
</g>
<path d="M23.9812 12.682L22.6935 5.65147C22.6389 5.35394 22.4774 5.08442 22.2372 4.89019L16.5619 0.30181C16.3216 0.107627 16.0181 0.00116381 15.7045 0.00109863H8.29571C7.98213 0.00116381 7.67859 0.107627 7.43834 0.30181L1.76296 4.89019C1.52279 5.08442 1.36128 5.35394 1.30676 5.65147L0.0203292 12.682C-0.0342414 12.9796 0.0218715 13.2863 0.178795 13.5479L3.88319 19.7306C4.04003 19.9922 4.28747 20.1922 4.58209 20.2955L11.5439 22.7378C11.8386 22.8411 12.1616 22.8411 12.4563 22.7378L19.4181 20.2955C19.7127 20.1922 19.9602 19.9922 20.117 19.7306L23.8214 13.5479C23.9788 13.2864 24.0353 12.9798 23.9812 12.682Z" fill="url(#paint0_linear_2141_272)"/>
<g style="mix-blend-mode:multiply">
<path d="M23.9809 12.682L23.9719 12.6327C23.943 12.765 23.8925 12.892 23.8224 13.0091L20.118 19.1919C19.9613 19.4536 19.7138 19.6537 19.4191 19.757L12.4573 22.1992C12.1626 22.3026 11.8396 22.3026 11.5449 22.1992L4.58307 19.757C4.28838 19.6537 4.04091 19.4536 3.88417 19.1919L0.179774 13.0091C0.109632 12.892 0.0591693 12.765 0.0302649 12.6327L0.0213053 12.682C-0.0332653 12.9796 0.0228507 13.2862 0.179774 13.5479L3.88417 19.7306C4.04101 19.9922 4.28845 20.1922 4.58307 20.2955L11.5449 22.7377C11.8396 22.8411 12.1626 22.8411 12.4573 22.7377L19.4191 20.2955C19.7137 20.1922 19.9612 19.9922 20.118 19.7306L23.8224 13.5479C23.9793 13.2862 24.0354 12.9796 23.9809 12.682Z" fill="#E6E6E6"/>
</g>
<path d="M20.5878 5.84359L15.886 2.0419C15.6571 1.8567 15.3678 1.7552 15.0689 1.75525H8.93087C8.63197 1.7552 8.34262 1.8567 8.1137 2.0419L3.41191 5.84359C3.18274 6.02863 3.02863 6.28562 2.9767 6.56935L1.91095 12.3939C1.85899 12.6776 1.91247 12.9698 2.06199 13.2193L5.13073 18.3413C5.28006 18.5906 5.5157 18.7813 5.79634 18.88L11.5639 20.9029C11.845 21.0014 12.1532 21.0014 12.4343 20.9029L18.2019 18.88C18.4825 18.7813 18.7181 18.5906 18.8675 18.3413L21.9362 13.2193C22.0857 12.9698 22.1392 12.6776 22.0872 12.3939L21.0215 6.56935C20.97 6.28583 20.8164 6.02887 20.5878 5.84359Z" fill="#FFF3F3"/>
<path d="M6 9.82605V7.02319H6.59214V9.35019H8.06443V9.8263L6 9.82605Z" fill="#F94E36"/>
<path d="M8.48633 9.82605V7H10.6608V7.47808H9.07975V8.10467H10.552V8.58077H9.07975V9.35019H10.7182V9.82629L8.48633 9.82605Z" fill="#F94E36"/>
<path d="M11.9676 9.82605L10.918 7H11.56L12.3024 9.09166L13.0226 7H13.6506L12.6009 9.82605H11.9676Z" fill="#F94E36"/>
<path d="M13.9512 9.82605V7H16.1257V7.47808H14.5433V8.10467H16.0156V8.58077H14.5433V9.35019H16.1817V9.82629L13.9512 9.82605Z" fill="#F94E36"/>
<path d="M16.7012 9.82605V7.02319H17.2933V9.35019H18.7656V9.8263L16.7012 9.82605Z" fill="#F94E36"/>
<path d="M13.4981 15.7017V16.5H10.5C10.5337 16.1957 10.6341 15.9027 10.7939 15.6419C10.956 15.3718 11.2767 15.0135 11.7558 14.567C12.1411 14.206 12.3775 13.9614 12.465 13.8329C12.5825 13.6553 12.6413 13.4803 12.6413 13.3079C12.6413 13.1163 12.59 12.969 12.4875 12.8659C12.385 12.7629 12.2435 12.7114 12.063 12.7114C11.8843 12.7114 11.7423 12.7654 11.6369 12.8735C11.5316 12.9816 11.4707 13.161 11.4544 13.412L10.6022 13.3263C10.6527 12.8531 10.8119 12.5141 11.0799 12.3091C11.3479 12.1041 11.6826 12.0011 12.0843 12C12.5248 12 12.8708 12.1193 13.1223 12.358C13.2445 12.4709 13.3415 12.6087 13.4066 12.7622C13.4716 12.9157 13.5034 13.0814 13.4997 13.2482C13.5006 13.4456 13.4639 13.6413 13.3916 13.8247C13.3053 14.0314 13.19 14.2245 13.0491 14.3983C12.9457 14.5309 12.7591 14.7215 12.4891 14.9702C12.2192 15.219 12.0482 15.3841 11.9762 15.4657C11.9102 15.5393 11.8516 15.6192 11.8012 15.7043L13.4981 15.7017Z" fill="#F94E36"/>
</g>
<defs>
<linearGradient id="paint0_linear_2141_272" x1="3.54348" y1="3.16708" x2="19.8299" y2="20.0687" gradientUnits="userSpaceOnUse">
<stop stop-color="#FCDFDE"/>
<stop offset="1" stop-color="#EABAB4"/>
</linearGradient>
<clipPath id="clip0_2141_272">
<rect width="24" height="32" fill="white"/>
</clipPath>
</defs>
</svg>
