<svg width="24" height="32" viewBox="0 0 24 32" fill="none" xmlns="http://www.w3.org/2000/svg">
<g clip-path="url(#clip0_2141_313)">
<path d="M18.3831 19.9751V31.7421C18.3831 31.7883 18.3702 31.8336 18.3457 31.8733C18.3212 31.9131 18.2861 31.9457 18.2439 31.9677C18.2018 31.9898 18.1543 32.0005 18.1064 31.9988C18.0585 31.997 18.0119 31.9828 17.9717 31.9577L16.8532 31.2588L12.1455 28.3183C12.1024 28.2914 12.0521 28.277 12.0006 28.277C11.9492 28.277 11.8989 28.2914 11.8557 28.3183L7.14805 31.2588L6.02931 31.9577C5.98907 31.9827 5.94257 31.9969 5.8947 31.9986C5.84683 32.0003 5.79936 31.9896 5.75728 31.9676C5.7152 31.9455 5.68007 31.9129 5.65559 31.8732C5.63111 31.8335 5.61818 31.7882 5.61816 31.7421V19.9751H18.3831Z" fill="#BC59D3"/>
<g style="mix-blend-mode:multiply">
<path d="M7.14805 19.9751V31.2596L6.02931 31.9584C5.98907 31.9835 5.94257 31.9976 5.8947 31.9993C5.84683 32.0011 5.79936 31.9904 5.75728 31.9683C5.7152 31.9462 5.68007 31.9136 5.65559 31.874C5.63111 31.8343 5.61818 31.789 5.61816 31.7428V19.9758L7.14805 19.9751Z" fill="#F4EAE6"/>
</g>
<g style="mix-blend-mode:screen">
<path d="M18.3824 19.9751V31.7421C18.3824 31.7883 18.3695 31.8336 18.345 31.8733C18.3205 31.9131 18.2854 31.9457 18.2433 31.9677C18.2011 31.9898 18.1536 32.0005 18.1057 31.9988C18.0578 31.997 18.0113 31.9828 17.971 31.9577L16.8525 31.2588V19.9751H18.3824Z" fill="#865445"/>
</g>
<g style="mix-blend-mode:color-burn">
<path d="M18.3828 19.975V21.9887L16.8529 22.5247L12.4565 24.0668C12.1618 24.17 11.8388 24.17 11.5441 24.0668L7.14775 22.5247L5.61914 21.9887V19.975H18.3828Z" fill="#D3CAEB"/>
</g>
<path d="M23.9799 12.6819L22.6945 5.65135C22.64 5.35383 22.4784 5.08431 22.2383 4.89008L16.5626 0.301699C16.3226 0.10714 16.0192 0.000315165 15.7055 0H8.29673C7.98315 2.29935e-05 7.6796 0.106491 7.43937 0.300712L1.76398 4.88909C1.52322 5.08341 1.36132 5.35333 1.30676 5.65135L0.0203292 12.6819C-0.0342414 12.9795 0.0218715 13.2861 0.178795 13.5478L3.88294 19.7305C4.03966 19.9921 4.28702 20.1921 4.58158 20.2954L11.5449 22.7376C11.8396 22.841 12.1627 22.841 12.4573 22.7376L19.4191 20.2954C19.7138 20.1921 19.9612 19.9921 20.118 19.7305L23.8209 13.5473C23.9777 13.2856 24.0338 12.979 23.9794 12.6814L23.9799 12.6819Z" fill="url(#paint0_linear_2141_313)"/>
<g style="mix-blend-mode:multiply">
<path d="M23.9799 12.6819L23.9709 12.6326C23.942 12.7649 23.8916 12.8919 23.8214 13.009L20.117 19.1917C19.9603 19.4535 19.7128 19.6536 19.4181 19.7569L12.4563 22.1991C12.1616 22.3024 11.8386 22.3024 11.5439 22.1991L4.58055 19.7569C4.28593 19.6536 4.03856 19.4534 3.88191 19.1917L0.178795 13.0095C0.108595 12.8924 0.0580471 12.7654 0.0290294 12.6331L0.0203292 12.6824C-0.0342414 12.98 0.0218715 13.2866 0.178795 13.5483L3.88294 19.731C4.03966 19.9926 4.28702 20.1926 4.58158 20.2959L11.5449 22.7381C11.8396 22.8415 12.1627 22.8415 12.4573 22.7381L19.4191 20.2959C19.7138 20.1926 19.9612 19.9926 20.118 19.731L23.8209 13.5473C23.9777 13.2856 24.0338 12.979 23.9794 12.6814L23.9799 12.6819Z" fill="#F4EAE6"/>
</g>
<path d="M20.5882 5.84347L15.8864 2.04178C15.6574 1.85654 15.368 1.75504 15.069 1.75513H8.93125C8.63234 1.75504 8.34298 1.85654 8.11408 2.04178L3.41203 5.84347C3.18284 6.0285 3.02873 6.28549 2.97682 6.56923L1.91081 12.3938C1.8591 12.6774 1.91257 12.9696 2.06186 13.2192L5.13264 18.3411C5.28191 18.5905 5.51757 18.7813 5.79826 18.8799L11.5658 20.9027C11.8469 21.0013 12.1551 21.0013 12.4362 20.9027L18.2038 18.8799C18.4844 18.7812 18.7201 18.5905 18.8694 18.3411L21.9381 13.2192C22.0876 12.9697 22.1411 12.6774 22.0892 12.3938L21.0234 6.56923C20.9715 6.2855 20.8174 6.02851 20.5882 5.84347Z" fill="#F9F4FF"/>
<path d="M6 9.82605V7.02319H6.59214V9.35019H8.06443V9.8263L6 9.82605Z" fill="#BC59D3"/>
<path d="M8.48535 9.82605V7H10.6593V7.47808H9.07698V8.10467H10.5493V8.58077H9.07698V9.35019H10.7154V9.82629L8.48535 9.82605Z" fill="#BC59D3"/>
<path d="M11.965 9.82605L10.918 7H11.56L12.3024 9.09166L13.0193 7H13.6475L12.5979 9.82605H11.965Z" fill="#BC59D3"/>
<path d="M13.9502 9.82605V7H16.1247V7.47808H14.5423V8.10467H16.0146V8.58077H14.5423V9.35019H16.1808V9.82629L13.9502 9.82605Z" fill="#BC59D3"/>
<path d="M16.6992 9.82605V7.02319H17.2914V9.35019H18.7637V9.8263L16.6992 9.82605Z" fill="#BC59D3"/>
<path d="M10.5 15.2534L11.3375 15.1541C11.3639 15.3628 11.4357 15.5221 11.5528 15.632C11.6118 15.6873 11.6816 15.7304 11.758 15.7588C11.8345 15.7872 11.916 15.8003 11.9977 15.7973C12.0794 15.7943 12.1597 15.7752 12.2337 15.7413C12.3077 15.7073 12.374 15.6592 12.4286 15.5997C12.5508 15.4675 12.6119 15.2892 12.6119 15.0648C12.6119 14.8522 12.5533 14.6838 12.4362 14.5598C12.383 14.5004 12.3172 14.4529 12.2433 14.4207C12.1695 14.3885 12.0894 14.3724 12.0085 14.3734C11.8741 14.3776 11.7408 14.3993 11.6122 14.4379L11.7077 13.7498C11.9417 13.7556 12.1202 13.7059 12.2433 13.6008C12.3042 13.5489 12.3525 13.4842 12.3845 13.4117C12.4165 13.3392 12.4314 13.2606 12.4283 13.1816C12.4283 13.0333 12.383 12.9151 12.2925 12.8269C12.202 12.7388 12.0821 12.6947 11.9326 12.6947C11.8623 12.6935 11.7925 12.7062 11.7274 12.7321C11.6623 12.7579 11.6033 12.7963 11.5538 12.845C11.4492 12.9454 11.3856 13.0917 11.3629 13.2839L10.5657 13.1516C10.6212 12.8851 10.7049 12.6722 10.8167 12.5129C10.9347 12.3484 11.0963 12.2186 11.2843 12.1372C11.4954 12.0436 11.7252 11.9968 11.957 12.0002C12.3821 12.0002 12.7234 12.1325 12.9807 12.3971C13.1921 12.6136 13.2978 12.858 13.2978 13.1304C13.2978 13.5173 13.0812 13.826 12.6482 14.0564C12.8926 14.102 13.1124 14.2308 13.2687 14.4199C13.4228 14.6084 13.4999 14.8359 13.4999 15.1025C13.5025 15.2878 13.4652 15.4716 13.3904 15.6419C13.3156 15.8122 13.2049 15.9653 13.0656 16.0911C12.7763 16.3639 12.4161 16.5002 11.9851 16.5C11.5767 16.5 11.2381 16.3853 10.9693 16.1559C10.7005 15.9266 10.544 15.6257 10.5 15.2534Z" fill="#BC59D3"/>
</g>
<defs>
<linearGradient id="paint0_linear_2141_313" x1="3.54348" y1="3.16697" x2="19.8299" y2="20.0686" gradientUnits="userSpaceOnUse">
<stop stop-color="#F5DFFF"/>
<stop offset="1" stop-color="#E2B1F9"/>
</linearGradient>
<clipPath id="clip0_2141_313">
<rect width="24" height="32" fill="white"/>
</clipPath>
</defs>
</svg>
