<svg width="48" height="64" viewBox="0 0 48 64" fill="none" xmlns="http://www.w3.org/2000/svg">
<path d="M36.7652 39.9505V63.4844C36.7652 63.5768 36.7393 63.6675 36.6902 63.7468C36.6412 63.8262 36.5709 63.8913 36.4867 63.9354C36.4025 63.9795 36.3074 64.0009 36.2117 63.9973C36.1159 63.9938 36.0229 63.9654 35.9424 63.9152L33.7055 62.5174L24.2901 56.6364C24.2038 56.5825 24.1031 56.5539 24.0003 56.5539C23.8975 56.5539 23.7968 56.5825 23.7105 56.6364L14.2951 62.5174L12.0582 63.9152C11.9777 63.9654 11.8847 63.9938 11.7889 63.9973C11.6931 64.0009 11.5981 63.9795 11.5139 63.9354C11.4297 63.8913 11.3594 63.8262 11.3104 63.7468C11.2613 63.6675 11.2354 63.5768 11.2354 63.4844V39.9505H36.7652Z" fill="#F9A60C"/>
<g style="mix-blend-mode:multiply">
<path d="M14.2951 39.9505V62.5189L12.0582 63.9166C11.9777 63.9669 11.8847 63.9953 11.7889 63.9988C11.6931 64.0024 11.5981 63.981 11.5139 63.9369C11.4297 63.8928 11.3594 63.8277 11.3104 63.7483C11.2613 63.6689 11.2354 63.5783 11.2354 63.4859V39.952L14.2951 39.9505Z" fill="#E6E6E6"/>
</g>
<g style="mix-blend-mode:screen">
<path d="M36.7649 39.9505V63.4844C36.7648 63.5768 36.7389 63.6675 36.6899 63.7468C36.6408 63.8262 36.5705 63.8913 36.4863 63.9354C36.4021 63.9795 36.3071 64.0009 36.2113 63.9973C36.1155 63.9938 36.0225 63.9654 35.9421 63.9152L33.7051 62.5174V39.9505H36.7649Z" fill="#4D4D4D"/>
</g>
<g style="mix-blend-mode:color-burn">
<path d="M36.7652 39.9505V43.9779L33.7055 45.05L24.9127 48.1341C24.3233 48.3407 23.6773 48.3407 23.0879 48.1341L14.2951 45.05L11.2354 43.9774V39.95L36.7652 39.9505Z" fill="#CCCCCC"/>
</g>
<path d="M47.9624 25.3643L45.3895 11.3032C45.2805 10.708 44.9574 10.1688 44.4771 9.78013L33.1263 0.603373C32.6458 0.215006 32.0388 0.00208348 31.4116 0.00195312H16.5915C15.9643 0.00208348 15.3572 0.215006 14.8767 0.603373L3.52597 9.78013C3.04563 10.1688 2.72262 10.708 2.61357 11.3032L0.0407125 25.3643C-0.0685274 25.9594 0.0437081 26.5725 0.357644 27.0956L7.76644 39.461C8.07992 39.9845 8.57485 40.3847 9.16423 40.5914L23.0879 45.4758C23.6773 45.682 24.3232 45.682 24.9127 45.4758L38.8363 40.5914C39.4257 40.3847 39.9206 39.9845 40.2341 39.461L47.6429 27.0956C47.9577 26.5728 48.0708 25.9597 47.9624 25.3643Z" fill="url(#paint0_linear_94_1293)"/>
<g style="mix-blend-mode:multiply">
<path d="M47.9627 25.3644L47.9448 25.2657C47.887 25.5304 47.7861 25.7847 47.6458 26.0191L40.237 38.384C39.9235 38.9075 39.4286 39.3077 38.8392 39.5143L24.9156 44.3987C24.3262 44.6054 23.6801 44.6054 23.0908 44.3987L9.16717 39.5143C8.57779 39.3077 8.08286 38.9075 7.76938 38.384L0.360579 26.0191C0.220307 25.7847 0.119384 25.5304 0.0615603 25.2657L0.0436412 25.3644C-0.0655987 25.9594 0.046643 26.5725 0.360579 27.0956L7.76938 39.461C8.08286 39.9845 8.57779 40.3847 9.16717 40.5914L23.0908 45.4758C23.6802 45.682 24.3262 45.682 24.9156 45.4758L38.8392 40.5914C39.4286 40.3847 39.9235 39.9845 40.237 39.461L47.6458 27.0956C47.9598 26.5725 48.072 25.9594 47.9627 25.3644Z" fill="#E6E6E6"/>
</g>
<path d="M41.1766 11.6871L31.773 4.08367C31.3152 3.71328 30.7365 3.51028 30.1387 3.51038H17.8627C17.2649 3.51028 16.6862 3.71328 16.2284 4.08367L6.82479 11.6871C6.36645 12.0571 6.05824 12.5711 5.95437 13.1386L3.82287 24.7876C3.71896 25.355 3.82592 25.9395 4.12496 26.4385L10.2624 36.6824C10.5609 37.1812 11.0323 37.5627 11.5937 37.7599L23.1287 41.8056C23.6909 42.0032 24.3074 42.0032 24.8696 41.8056L36.4047 37.7599C36.9661 37.5627 37.4374 37.1812 37.7359 36.6824L43.8734 26.4385C44.1724 25.9395 44.2794 25.355 44.1755 24.7876L42.044 13.1386C41.9409 12.5715 41.6338 12.0576 41.1766 11.6871Z" fill="#FFFAF3"/>
<path d="M11 19.6516V14.0459H12.1843V18.7004H15.1289V19.6526L11 19.6516Z" fill="#F9A60C"/>
<path d="M15.9727 19.6516V14H20.3217V14.9562H17.1595V16.2088H20.1041V17.1611H17.1595V18.7004H20.4364V19.6526L15.9727 19.6516Z" fill="#F9A60C"/>
<path d="M22.9352 19.6516L20.8359 14H22.1201L23.6049 18.1828L25.0416 14H26.2976L24.1983 19.6516H22.9352Z" fill="#F9A60C"/>
<path d="M26.9033 19.6516V14H31.2523V14.9562H28.0876V16.2088H31.0322V17.1611H28.0876V18.7004H31.3645V19.6526L26.9033 19.6516Z" fill="#F9A60C"/>
<path d="M32.4014 19.6516V14.0459H33.5857V18.7004H36.5302V19.6526L32.4014 19.6516Z" fill="#F9A60C"/>
<path d="M21 30.5401L22.9883 30.3629C23.0446 30.7502 23.2124 31.0564 23.4916 31.2818C23.7491 31.5001 24.0961 31.622 24.4572 31.6211C24.6604 31.6221 24.8613 31.5833 25.0445 31.5076C25.2278 31.4318 25.3886 31.3212 25.5149 31.184C25.8033 30.8926 25.9477 30.4531 25.9482 29.8655C25.9482 29.3146 25.8051 28.9015 25.5188 28.6263C25.379 28.4911 25.2064 28.3839 25.0132 28.3126C24.82 28.2413 24.6109 28.2074 24.4009 28.2135C23.8282 28.2135 23.3147 28.4323 22.8604 28.8698L21.2414 28.6683L22.2641 24H27.5383V25.6093H23.7757L23.4635 27.1326C24.0526 26.8727 24.724 26.7853 25.3759 26.8836C26.0279 26.9819 26.6249 27.2605 27.0768 27.6773C27.6921 28.2317 27.9997 28.9514 27.9997 29.8366C28.0097 30.548 27.7477 31.2424 27.2542 31.8127C26.5775 32.6042 25.6383 33 24.4367 33C23.4767 33 22.6936 32.7777 22.0874 32.3332C21.4813 31.8886 21.1188 31.291 21 30.5401Z" fill="#F9A60C"/>
<defs>
<linearGradient id="paint0_linear_94_1293" x1="7.08701" y1="6.33392" x2="39.6599" y2="40.1372" gradientUnits="userSpaceOnUse">
<stop stop-color="#FCF0DE"/>
<stop offset="1" stop-color="#EAD7B4"/>
</linearGradient>
</defs>
</svg>
