<svg width="48" height="64" viewBox="0 0 48 64" fill="none" xmlns="http://www.w3.org/2000/svg">
<path d="M36.7652 39.95V63.484C36.7653 63.5764 36.7394 63.6671 36.6904 63.7465C36.6415 63.8259 36.5711 63.8912 36.4869 63.9353C36.4027 63.9795 36.3076 64.0009 36.2118 63.9973C36.116 63.9938 36.0229 63.9654 35.9424 63.9152L33.7055 62.5174L24.2901 56.6364C24.2038 56.5825 24.1031 56.5539 24.0003 56.5539C23.8975 56.5539 23.7968 56.5825 23.7105 56.6364L14.2951 62.5174L12.0582 63.9152C11.9777 63.9654 11.8846 63.9938 11.7888 63.9973C11.693 64.0009 11.5979 63.9795 11.5137 63.9353C11.4295 63.8912 11.3591 63.8259 11.3102 63.7465C11.2612 63.6671 11.2353 63.5764 11.2354 63.484V39.95H36.7652Z" fill="#F94E36"/>
<g style="mix-blend-mode:multiply">
<path d="M14.2951 39.95V62.5189L12.0582 63.9166C11.9777 63.9669 11.8846 63.9953 11.7888 63.9988C11.693 64.0024 11.5979 63.9809 11.5137 63.9368C11.4295 63.8926 11.3591 63.8274 11.3102 63.748C11.2612 63.6685 11.2353 63.5778 11.2354 63.4854V39.9515L14.2951 39.95Z" fill="#E6E6E6"/>
</g>
<g style="mix-blend-mode:screen">
<path d="M36.7649 39.95V63.484C36.7649 63.5764 36.739 63.6671 36.6901 63.7465C36.6411 63.8259 36.5708 63.8912 36.4865 63.9353C36.4023 63.9795 36.3072 64.0009 36.2114 63.9973C36.1156 63.9938 36.0225 63.9654 35.9421 63.9152L33.7051 62.5174V39.95H36.7649Z" fill="#4D4D4D"/>
</g>
<g style="mix-blend-mode:color-burn">
<path d="M36.7652 39.95V43.9774L33.7055 45.0495L24.9127 48.1336C24.3233 48.3402 23.6773 48.3402 23.0879 48.1336L14.2951 45.0495L11.2354 43.9764V39.949L36.7652 39.95Z" fill="#CCCCCC"/>
</g>
<path d="M47.9623 25.364L45.3869 11.3028C45.2779 10.7078 44.9548 10.1687 44.4745 9.78026L33.1237 0.603498C32.6432 0.215132 32.0362 0.00220555 31.409 0.0020752H16.5914C15.9643 0.00220555 15.3572 0.215132 14.8767 0.603498L3.52591 9.78026C3.04558 10.1687 2.72255 10.7078 2.61351 11.3028L0.0406584 25.364C-0.0684827 25.9592 0.0437431 26.5724 0.35759 27.0957L7.76639 39.4612C8.08006 39.9843 8.57495 40.3843 9.16418 40.591L23.0878 45.4754C23.6772 45.6821 24.3233 45.6821 24.9126 45.4754L38.8362 40.591C39.4255 40.3843 39.9204 39.9843 40.234 39.4612L47.6428 27.0957C47.9576 26.5727 48.0707 25.9595 47.9623 25.364Z" fill="url(#paint0_linear_94_1191)"/>
<g style="mix-blend-mode:multiply">
<path d="M47.9627 25.3639L47.9448 25.2652C47.887 25.5298 47.786 25.7839 47.6458 26.0181L40.237 38.3835C39.9235 38.907 39.4286 39.3072 38.8392 39.5138L24.9155 44.3983C24.3262 44.605 23.6801 44.605 23.0907 44.3983L9.16711 39.5138C8.57773 39.3072 8.0828 38.907 7.76932 38.3835L0.360525 26.0181C0.220241 25.7839 0.119315 25.5298 0.0615063 25.2652L0.0435871 25.3639C-0.065554 25.9591 0.0466781 26.5723 0.360525 27.0956L7.76932 39.4611C8.083 39.9842 8.57788 40.3842 9.16711 40.5909L23.0907 45.4753C23.6801 45.682 24.3262 45.682 24.9155 45.4753L38.8392 40.5909C39.4284 40.3842 39.9233 39.9842 40.237 39.4611L47.6458 27.0956C47.9596 26.5723 48.0718 25.9591 47.9627 25.3639Z" fill="#E6E6E6"/>
</g>
<path d="M41.1756 11.6871L31.7721 4.08368C31.3142 3.71328 30.7355 3.51028 30.1377 3.51038H17.8617C17.2639 3.51028 16.6852 3.71328 16.2274 4.08368L6.82381 11.6871C6.36547 12.0571 6.05726 12.5711 5.95339 13.1386L3.82189 24.7876C3.71798 25.355 3.82494 25.9395 4.12398 26.4385L10.2615 36.6824C10.5601 37.181 11.0314 37.5625 11.5927 37.7599L23.1278 41.8056C23.69 42.0027 24.3064 42.0027 24.8686 41.8056L36.4037 37.7599C36.965 37.5625 37.4363 37.181 37.7349 36.6824L43.8724 26.4385C44.1714 25.9395 44.2784 25.355 44.1745 24.7876L42.043 13.1386C41.9399 12.5715 41.6328 12.0576 41.1756 11.6871Z" fill="#FFF3F3"/>
<path d="M12 19.6522V14.0465H13.1843V18.7005H16.1289V19.6527L12 19.6522Z" fill="#F94E36"/>
<path d="M16.9727 19.6522V14.0001H21.3217V14.9563H18.1595V16.2095H21.1041V17.1617H18.1595V18.7005H21.4364V19.6527L16.9727 19.6522Z" fill="#F94E36"/>
<path d="M23.9352 19.6522L21.8359 14.0001H23.1201L24.6049 18.1834L26.0452 14.0001H27.3011L25.2019 19.6522H23.9352Z" fill="#F94E36"/>
<path d="M27.9033 19.6522V14.0001H32.2523V14.9563H29.0876V16.2095H32.0322V17.1617H29.0876V18.7005H32.3645V19.6527L27.9033 19.6522Z" fill="#F94E36"/>
<path d="M33.4014 19.6522V14.0465H34.5857V18.7005H37.5302V19.6527L33.4014 19.6522Z" fill="#F94E36"/>
<path d="M26.9962 31.4034V33.0001H21C21.0675 32.3915 21.2682 31.8054 21.5877 31.284C21.9121 30.7437 22.5534 30.027 23.5116 29.1341C24.2822 28.4122 24.7549 27.9228 24.93 27.666C25.1651 27.3108 25.2826 26.9607 25.2826 26.616C25.2826 26.2327 25.1801 25.9381 24.975 25.732C24.77 25.5259 24.487 25.4229 24.1261 25.4229C23.7686 25.4229 23.4846 25.531 23.2739 25.7471C23.0632 25.9632 22.9415 26.3222 22.9088 26.824L21.2044 26.6527C21.3054 25.7064 21.6239 25.0283 22.1598 24.6183C22.6957 24.2084 23.3653 24.0023 24.1685 24.0001C25.0497 24.0001 25.7417 24.2388 26.2445 24.7161C26.4891 24.9419 26.6829 25.2175 26.8131 25.5245C26.9433 25.8315 27.0068 26.1629 26.9994 26.4966C27.0012 26.8912 26.9279 27.2826 26.7833 27.6496C26.6106 28.0629 26.3799 28.4492 26.0982 28.7968C25.8914 29.0619 25.5181 29.4432 24.9783 29.9406C24.4384 30.4381 24.0965 30.7684 23.9524 30.9316C23.8204 31.0787 23.7032 31.2385 23.6023 31.4087L26.9962 31.4034Z" fill="#F94E36"/>
<defs>
<linearGradient id="paint0_linear_94_1191" x1="7.08695" y1="6.33404" x2="39.6598" y2="40.1373" gradientUnits="userSpaceOnUse">
<stop stop-color="#FCDFDE"/>
<stop offset="1" stop-color="#EABAB4"/>
</linearGradient>
</defs>
</svg>
