<svg width="48" height="64" viewBox="0 0 48 64" fill="none" xmlns="http://www.w3.org/2000/svg">
<path d="M36.7648 39.9505V63.4844C36.7647 63.5768 36.7388 63.6675 36.6898 63.7468C36.6408 63.8262 36.5704 63.8913 36.4862 63.9354C36.402 63.9795 36.307 64.0009 36.2112 63.9973C36.1154 63.9938 36.0224 63.9654 35.942 63.9152L33.705 62.5174L24.2896 56.6364C24.2033 56.5825 24.1027 56.5539 23.9998 56.5539C23.897 56.5539 23.7964 56.5825 23.71 56.6364L14.2947 62.5174L12.0567 63.9166C11.9763 63.9669 11.8833 63.9953 11.7875 63.9989C11.6917 64.0025 11.5968 63.9811 11.5126 63.937C11.4284 63.8929 11.3581 63.8277 11.3091 63.7483C11.2602 63.6689 11.2343 63.5783 11.2344 63.4859V39.952L36.7648 39.9505Z" fill="#58AAD3"/>
<g style="mix-blend-mode:multiply">
<path d="M14.2947 39.9505V62.5189L12.0567 63.9166C11.9763 63.9669 11.8833 63.9953 11.7875 63.9989C11.6917 64.0025 11.5968 63.9811 11.5126 63.937C11.4284 63.8929 11.3581 63.8277 11.3091 63.7483C11.2602 63.6689 11.2343 63.5783 11.2344 63.4859V39.952L14.2947 39.9505Z" fill="#EFE4F4"/>
</g>
<g style="mix-blend-mode:screen">
<path d="M36.7649 39.9505V63.4844C36.7648 63.5768 36.7389 63.6675 36.6899 63.7468C36.6408 63.8262 36.5705 63.8913 36.4863 63.9354C36.4021 63.9795 36.3071 64.0009 36.2113 63.9973C36.1155 63.9938 36.0225 63.9654 35.9421 63.9152L33.7051 62.5174V39.9505H36.7649Z" fill="#684486"/>
</g>
<g style="mix-blend-mode:color-burn">
<path d="M36.7656 39.9505V43.9779L33.7058 45.05L24.9131 48.1341C24.3237 48.3406 23.6776 48.3406 23.0883 48.1341L14.2955 45.05L11.2383 43.9779V39.9505H36.7656Z" fill="#C8EBDB"/>
</g>
<path d="M47.9597 25.3644L45.3889 11.3032C45.2799 10.708 44.9568 10.1688 44.4765 9.78015L33.1252 0.603396C32.6452 0.214278 32.0383 0.00063033 31.411 0H16.5934C15.9663 4.5987e-05 15.3591 0.212991 14.8787 0.601432L3.52792 9.77819C3.04758 10.1669 2.72457 10.706 2.61552 11.3012L0.0426656 25.3624C-0.0665742 25.9574 0.0456612 26.5705 0.359597 27.0936L7.76788 39.4591C8.08117 39.9825 8.57592 40.3827 9.16516 40.5894L23.0919 45.4738C23.6813 45.6801 24.3272 45.6801 24.9167 45.4738L38.8403 40.5894C39.4297 40.3828 39.9246 39.9825 40.2381 39.4591L47.6418 27.0946C47.9553 26.5714 48.0675 25.9584 47.9587 25.3634L47.9597 25.3644Z" fill="url(#paint0_linear_94_1327)"/>
<g style="mix-blend-mode:multiply">
<path d="M47.9598 25.3644L47.9419 25.2657C47.8841 25.5304 47.7832 25.7847 47.6429 26.0191L40.2341 38.384C39.9206 38.9075 39.4257 39.3077 38.8363 39.5143L24.9127 44.3987C24.3233 44.6054 23.6772 44.6054 23.0879 44.3987L9.16116 39.5143C8.57192 39.3077 8.07716 38.9074 7.76388 38.384L0.357644 26.0196C0.217193 25.7852 0.116097 25.531 0.0581129 25.2662L0.0407125 25.3649C-0.0685274 25.9599 0.0437081 26.573 0.357644 27.0961L7.76593 39.4615C8.07922 39.985 8.57397 40.3852 9.16321 40.5919L23.0899 45.4763C23.6793 45.6825 24.3253 45.6825 24.9147 45.4763L38.8383 40.5919C39.4277 40.3852 39.9227 39.985 40.2361 39.4615L47.6419 27.0946C47.9554 26.5714 48.0676 25.9584 47.9588 25.3634L47.9598 25.3644Z" fill="#EFE4F4"/>
</g>
<path d="M41.1764 11.6871L31.7728 4.08367C31.3148 3.7132 30.7359 3.51021 30.138 3.51038H17.8625C17.2647 3.5102 16.686 3.7132 16.2282 4.08367L6.82406 11.6871C6.36569 12.0571 6.05747 12.5711 5.95364 13.1386L3.82162 24.7876C3.7182 25.355 3.82514 25.9394 4.12371 26.4385L10.2653 36.6824C10.5637 37.1813 11.035 37.5628 11.5965 37.7599L23.1316 41.8056C23.6938 42.0032 24.3103 42.0032 24.8724 41.8056L36.4075 37.7599C36.9689 37.5627 37.4403 37.1812 37.7388 36.6824L43.8762 26.4385C44.1753 25.9395 44.2822 25.355 44.1783 24.7876L42.0468 13.1386C41.943 12.5711 41.6347 12.0571 41.1764 11.6871Z" fill="#F2FFFD"/>
<path d="M11 19.6516V14.0459H12.1843V18.7004H15.1289V19.6526L11 19.6516Z" fill="#58AAD3"/>
<path d="M15.9697 19.6516V14H20.3177V14.9562H17.153V16.2088H20.0976V17.1611H17.153V18.7004H20.4298V19.6526L15.9697 19.6516Z" fill="#58AAD3"/>
<path d="M22.9292 19.6516L20.833 14H22.1171L23.602 18.1828L25.0356 14H26.2921L24.1928 19.6516H22.9292Z" fill="#58AAD3"/>
<path d="M26.9004 19.6516V14H31.2494V14.9562H28.0847V16.2088H31.0292V17.1611H28.0847V18.7004H31.3615V19.6526L26.9004 19.6516Z" fill="#58AAD3"/>
<path d="M32.3984 19.6516V14.0459H33.5827V18.7004H36.5273V19.6526L32.3984 19.6516Z" fill="#58AAD3"/>
<path d="M26.8323 26.1968L25.1653 26.3774C25.1245 26.0407 25.0182 25.7922 24.8463 25.6318C24.7566 25.5505 24.6514 25.4875 24.5367 25.4462C24.4221 25.4049 24.3002 25.3862 24.1782 25.3912C23.8148 25.3912 23.5079 25.5516 23.2576 25.8724C23.0072 26.1931 22.849 26.8596 22.7828 27.8718C23.2115 27.3743 23.7448 27.1258 24.3827 27.1262C25.1013 27.1262 25.7172 27.3947 26.2306 27.9318C26.744 28.4688 27.0004 29.1622 27 30.0118C27 30.9148 26.7302 31.6384 26.1905 32.1828C25.6508 32.7272 24.9581 32.9996 24.1124 33C23.2058 33 22.4605 32.6543 21.8766 31.9629C21.2926 31.2715 21.0004 30.1382 21 28.5632C21 26.9473 21.3045 25.7829 21.9134 25.07C22.5224 24.3571 23.313 24.0004 24.2854 24C24.968 24 25.5331 24.1873 25.9807 24.5618C26.4283 24.9363 26.7122 25.4813 26.8323 26.1968ZM22.9274 29.8822C22.9274 30.4317 23.0563 30.8557 23.3141 31.1541C23.5719 31.4525 23.8661 31.6017 24.1966 31.6017C24.3491 31.604 24.5001 31.5722 24.6382 31.5087C24.7763 31.4453 24.8979 31.3518 24.9936 31.2353C25.2063 30.9911 25.3124 30.5902 25.3119 30.0325C25.3119 29.4597 25.1975 29.0398 24.9686 28.7728C24.8663 28.6495 24.7376 28.5498 24.5916 28.4808C24.4456 28.4118 24.2859 28.3752 24.1238 28.3735C23.9618 28.3719 23.8013 28.4052 23.6539 28.4712C23.5064 28.5372 23.3756 28.6342 23.2707 28.7554C23.0419 29.0112 22.9274 29.3868 22.9274 29.8822Z" fill="#58AAD3"/>
<defs>
<linearGradient id="paint0_linear_94_1327" x1="7.08691" y1="6.33394" x2="39.6598" y2="40.1372" gradientUnits="userSpaceOnUse">
<stop stop-color="#DDF8FF"/>
<stop offset="1" stop-color="#AFEAF9"/>
</linearGradient>
</defs>
</svg>
