<svg width="170" height="106" viewBox="0 0 170 106" fill="none" xmlns="http://www.w3.org/2000/svg">
<g clip-path="url(#clip0_3_501)">
<path d="M159.136 13.0296C159.136 13.1532 159.136 13.3077 159.105 13.4004C158.945 14.6054 158.945 15.8105 159.041 17.0465C159.105 17.3555 159.168 17.6644 159.423 17.9116C159.837 18.3751 160.474 18.2824 160.729 17.7262C160.857 17.4482 160.857 17.17 160.793 16.892C160.474 15.7178 160.411 14.4819 160.379 13.2768C160.379 13.215 160.379 13.1223 160.379 13.0296C160.729 12.9987 161.048 12.9678 161.335 12.9678C161.558 12.9369 161.749 12.906 161.908 12.8133C162.386 12.5661 162.386 12.0409 161.876 11.7937C161.685 11.701 161.43 11.67 161.207 11.67C160.411 11.701 159.614 11.701 158.818 11.701C158.531 11.701 158.244 11.7319 157.958 11.7627C157.798 11.7937 157.607 11.7937 157.48 11.8864C157.257 11.979 157.13 12.1335 157.13 12.3498C157.161 12.5661 157.257 12.6897 157.48 12.7824C157.607 12.8751 157.767 12.906 157.926 12.906C158.308 12.9369 158.722 12.9987 159.136 13.0296ZM167.897 14.451C167.897 14.4819 167.929 14.5127 167.929 14.5127C168.057 15.347 168.184 16.1504 168.28 16.9538C168.312 17.2318 168.343 17.479 168.535 17.6953C168.949 18.2206 169.586 18.1588 169.872 17.6026C170 17.3245 170.032 17.0465 169.968 16.7375C169.777 15.8105 169.681 14.8835 169.49 13.9875C169.363 13.4313 169.204 12.906 169.044 12.4116C168.949 12.1026 168.726 11.8863 168.343 11.8554C167.961 11.7937 167.674 11.979 167.515 12.2571C167.324 12.5043 167.165 12.7515 167.037 13.0296C166.814 13.524 166.623 14.0184 166.368 14.4819C166.336 14.6054 166.304 14.6982 166.241 14.7908C166.209 14.729 166.177 14.6982 166.177 14.6982C165.763 13.9257 165.381 13.1532 164.967 12.4116C164.903 12.3498 164.871 12.288 164.839 12.2262C164.648 11.9481 164.425 11.7937 164.074 11.7937C163.756 11.8245 163.501 12.0099 163.342 12.288C163.278 12.4116 163.278 12.5043 163.246 12.6279C163.119 13.6167 162.959 14.6054 162.832 15.5942C162.768 16.1504 162.736 16.7066 162.736 17.2627C162.705 17.3863 162.736 17.5408 162.8 17.6644C162.864 17.9116 163.055 18.0661 163.31 18.097C163.628 18.1279 163.851 18.0352 163.947 17.788C164.042 17.6026 164.074 17.4482 164.106 17.2937C164.234 16.7375 164.329 16.2122 164.425 15.6869C164.489 15.3779 164.52 15.1307 164.616 14.7908C164.68 14.9144 164.743 15.0071 164.807 15.0998C165.094 15.4706 165.381 15.8414 165.731 16.1504C166.081 16.3976 166.368 16.3667 166.655 16.0886C166.719 16.0268 166.751 15.9959 166.814 15.9341C167.101 15.5015 167.451 15.0689 167.738 14.6363C167.802 14.5745 167.834 14.5127 167.897 14.451Z" fill="black"/>
<path d="M94.4925 13.6367C94.271 14.2239 94.2288 14.647 94.331 14.9986C94.4439 15.4767 94.7371 15.6333 95.1349 15.5117C98.8768 14.6142 107.082 17.1616 110.12 17.8716C110.837 18.0206 111.419 17.1236 110.931 16.3194C110.217 15.5405 102.015 12.2059 98.8858 12.0241C97.6591 11.9569 95.4661 11.6518 94.4925 13.6367Z" fill="#AC8AF7"/>
<path d="M126.561 2.84227C126.96 3.06552 127.183 3.27848 127.293 3.51643C127.457 3.82855 127.37 4.0445 127.095 4.15469C124.621 5.32556 121.33 10.3664 120.001 12.1049C119.679 12.5048 118.936 12.2724 118.824 11.6147C118.847 10.8711 121.765 5.4007 123.393 3.91075C124.033 3.32903 125.09 2.18762 126.561 2.84227Z" fill="#AC8AF7"/>
<path d="M106.863 0.360872C107.342 0.0106455 107.84 -0.112084 108.094 0.115519C111.826 3.21108 113.805 8.11317 115.03 12.6009C115.077 12.7055 115.079 12.8555 115.043 13.012C115.027 13.1458 114.927 13.2871 114.766 13.3965C114.595 13.5172 114.448 13.554 114.379 13.4499C112.743 11.2922 103.401 2.89674 106.863 0.360872Z" fill="#AC8AF7"/>
<path d="M27.8339 54.0301C28.7283 53.3843 29.7007 52.8465 30.7297 52.4293C31.8063 52.1308 32.9538 52.1802 33.9988 52.5705C35.0436 52.9607 35.9293 53.6702 36.5213 54.5919C37.051 55.5112 37.2582 56.5727 37.112 57.6163C36.9658 58.6597 36.474 59.6289 35.7104 60.3778C35.1186 60.9849 34.4466 61.5137 33.7125 61.9507C30.4402 64.0011 27.1388 65.939 23.8376 67.9894C23.1621 68.5025 22.4455 68.9629 21.6946 69.3657C20.5525 69.9181 19.2473 70.066 18.0047 69.7839C16.762 69.502 15.6601 68.8075 14.8894 67.821C14.3132 67.1223 13.827 66.3584 13.4414 65.5458C10.3139 59.1702 7.07059 52.8225 4.0589 46.3343C2.66888 43.5258 1.5395 40.2957 0.439081 37.1781C-0.0370129 36.2722 -0.129983 35.2221 0.179966 34.2508C0.489916 33.2794 1.17833 32.4637 2.09877 31.9771C3.01922 31.4904 4.09906 31.3714 5.10867 31.6451C6.11828 31.9188 6.97799 32.5637 7.50494 33.4425C9.12468 35.5302 10.5585 37.7478 11.7908 40.0711C14.9183 45.6884 17.9011 51.3057 20.9127 56.7546C21.0881 57.0557 21.2815 57.3462 21.4919 57.6252C23.7587 56.7009 25.8908 55.4922 27.8339 54.0301Z" fill="#6E4CEE"/>
<path d="M60.1705 52.0706C53.0179 60.1875 41.029 58.1371 35.0057 47.6889C30.7197 40.274 29.9669 28.0281 39.2916 20.3042C41.2828 18.6872 43.6638 17.5856 46.2126 17.1023C49.3377 16.6678 52.5244 17.2025 55.3173 18.6301C58.1101 20.0577 60.3663 22.305 61.7634 25.0509C66.86 34.0388 66.1361 45.4981 60.1705 52.0706ZM57.2747 33.1399C56.5148 30.9313 54.9904 29.0457 52.9599 27.8033C51.8109 27.009 50.4147 26.6229 49.0066 26.7098C47.5983 26.7968 46.2641 27.3516 45.228 28.2808C41.0871 31.8479 40.2181 40.3022 43.2298 45.3297C43.6138 46.1495 44.1774 46.878 44.882 47.4644C45.5865 48.0508 46.4146 48.4808 47.3083 48.7241C48.2021 48.9677 49.1397 49.0187 50.056 48.8739C50.9723 48.7289 51.8447 48.3916 52.6126 47.8855C54.8573 46.1974 56.5041 43.8731 57.324 41.2357C58.1441 38.598 58.0965 35.7781 57.188 33.1681L57.2747 33.1399Z" fill="#6E4CEE"/>
<path d="M89.3605 36.6789C88.6283 36.8317 87.8718 36.8408 87.1357 36.7057C86.3998 36.5705 85.6989 36.2942 85.0748 35.8926C84.5286 35.5896 84.0584 35.173 83.698 34.6727C83.3379 34.1723 83.0965 33.6009 82.9913 32.9991C82.8859 32.3975 82.9197 31.7808 83.0894 31.1932C83.2594 30.6056 83.5618 30.0619 83.9744 29.601C84.6933 28.675 85.7137 28.012 86.8702 27.7193C89.8897 26.8694 92.998 26.3512 96.1369 26.1746C96.8266 26.0968 97.5253 26.1534 98.192 26.3411C98.8589 26.529 99.4801 26.8438 100.02 27.2678C100.559 27.6916 101.006 28.2158 101.334 28.8094C101.661 29.403 101.864 30.0542 101.929 30.7246C102.833 34.0179 102.933 37.4708 102.218 40.8079C99.612 51.5932 90.6348 55.3005 80.5572 51.8459C77.7284 50.9222 75.2481 49.2012 73.4334 46.9026C71.0131 44.1346 69.2971 40.8541 68.4235 37.3251C67.7158 34.1824 67.7933 30.9215 68.6499 27.814C69.5062 24.7065 71.1166 21.8427 73.3465 19.4618C75.4627 16.874 78.2095 14.8374 81.3392 13.5354C83.3167 12.4782 85.6309 12.1776 87.8259 12.6928C88.3237 12.8265 88.7757 13.0869 89.1349 13.4471C89.4941 13.8073 89.7474 14.2541 89.8685 14.7413C89.9897 15.2284 89.9742 15.7381 89.8239 16.2175C89.6733 16.6969 89.3935 17.1285 89.0132 17.4676C88.29 18.1025 87.5043 18.667 86.6674 19.1528C84.0929 20.743 81.8526 22.792 80.0649 25.1914C78.8931 26.7441 78.0861 28.5271 77.7009 30.4146C77.3155 32.3021 77.3614 34.2487 77.8352 36.1174C78.4919 38.6652 79.9493 40.9522 82.0051 42.6614C88.3759 48.279 96.6581 42.858 95.2102 35.1904C93.0964 35.696 91.2429 36.2297 89.3605 36.6789Z" fill="#6E4CEE"/>
<path d="M128.281 52.5198C118.87 58.1373 108.155 52.5198 105.809 40.7235C104.101 32.2974 107.344 20.5009 118.696 16.007C121.111 15.0714 123.731 14.7429 126.312 15.052C129.413 15.6026 132.258 17.0833 134.445 19.2854C136.632 21.4875 138.052 24.2997 138.504 27.326C140.415 37.3529 136.071 48.0541 128.281 52.5198ZM131.554 33.6174C131.551 31.2842 130.7 29.0264 129.15 27.2417C128.322 26.1379 127.124 25.347 125.762 25.0037C124.399 24.6606 122.956 24.7864 121.679 25.36C116.582 27.4944 112.991 35.2464 114.294 40.9482C114.394 41.843 114.694 42.7059 115.173 43.4766C115.652 44.2472 116.299 44.9071 117.069 45.4101C117.838 45.9129 118.711 46.2468 119.628 46.3882C120.544 46.5294 121.481 46.4749 122.374 46.2285C125.068 45.3157 127.4 43.6098 129.046 41.3489C130.692 39.0879 131.569 36.3849 131.554 33.6174Z" fill="#6E4CEE"/>
<path d="M148.021 54.8793C147.879 55.9073 147.322 56.8384 146.472 57.4679C145.622 58.0971 144.549 58.3734 143.489 58.2356C142.429 58.0978 141.469 57.5572 140.82 56.7328C140.171 55.9087 139.887 54.868 140.029 53.84C140.171 52.8121 140.728 51.8809 141.578 51.2514C142.428 50.6219 143.501 50.3459 144.561 50.4837C145.62 50.6215 146.58 51.1618 147.23 51.9862C147.879 52.8106 148.163 53.8513 148.021 54.8793ZM145.502 16.99C146.053 16.1742 146.861 15.5529 147.805 15.2188C148.75 14.8847 149.78 14.8558 150.743 15.1363C151.722 15.3738 152.587 15.9304 153.193 16.7127C153.8 17.495 154.11 18.4556 154.074 19.4336C153.946 21.0023 153.704 22.5603 153.35 24.0959C152.394 29.2921 151.467 34.488 150.454 39.6281C149.99 41.6784 149.382 43.6445 148.716 45.7228C148.484 46.3726 148.097 46.9596 147.587 47.4362C147.269 47.7946 146.864 48.0695 146.408 48.2355C145.952 48.4017 145.46 48.4535 144.978 48.3863C144.496 48.3191 144.039 48.135 143.65 47.8513C143.26 47.5672 142.951 47.1926 142.751 46.7621C142.407 45.9897 142.22 45.1598 142.201 44.3186C142.201 40.8357 142.201 37.325 142.432 33.814C142.826 28.8035 143.6 23.828 144.749 18.928C144.884 18.2715 145.139 17.6437 145.502 17.0743V16.99Z" fill="#6E4CEE"/>
<path fill-rule="evenodd" clip-rule="evenodd" d="M15.5989 77.4493C15.257 78.1897 15.1632 79.015 15.3303 79.8093C15.4415 80.8563 15.6856 81.8862 16.0572 82.8753C16.5211 84.0866 17.0402 85.2844 17.6803 86.7607C17.8275 87.1004 17.9813 87.455 18.1423 87.8282C19.0054 89.8282 20.0885 92.3843 21.5331 96.0834C21.942 97.1343 22.3051 98.1938 22.6708 99.2605C22.8185 99.6915 22.9667 100.124 23.1184 100.557C23.6623 102.098 24.5982 103.482 25.8387 104.58C26.3655 105.183 27.0642 105.622 27.8476 105.842C28.6464 106.066 29.4959 106.052 30.2862 105.801C31.0764 105.55 31.7705 105.075 32.2783 104.436C32.7762 103.81 33.0722 103.055 33.1298 102.267C33.4528 100.732 33.3425 99.1394 32.8102 97.659C31.9653 95.201 31.0028 92.7394 29.893 90.3317L29.8879 90.3211C28.0621 86.5543 26.2062 82.8134 24.2624 79.0711L24.2479 79.0449C23.6789 78.0699 22.9394 77.1983 22.0627 76.4693C21.4935 75.8186 20.7084 75.3797 19.8414 75.2284C18.956 75.074 18.0427 75.2296 17.2648 75.6678C16.5288 76.0754 15.9454 76.6992 15.5989 77.4493Z" fill="#AC8AF7"/>
<path fill-rule="evenodd" clip-rule="evenodd" d="M43.4852 68.1739C40.6224 67.4548 37.6326 67.35 34.7241 67.867C32.4714 68.0821 30.2558 68.5861 28.7173 69.5844C27.9348 70.0925 27.3022 70.7449 26.9503 71.5741C26.5964 72.4079 26.5513 73.3614 26.8412 74.4238C27.3707 76.3699 28.0582 78.262 28.7433 80.1481L28.8543 80.4535L28.857 80.4603C30.9198 85.9395 33.0023 91.4002 35.1037 96.8421C35.3488 97.6997 35.6953 98.527 36.1364 99.3073L36.1446 99.3218C36.7272 100.291 37.4745 101.158 38.3549 101.886C38.7952 102.287 39.3396 102.564 39.93 102.688C40.5262 102.813 41.1463 102.776 41.7226 102.583C42.2991 102.389 42.8096 102.046 43.1986 101.59C43.5814 101.142 43.832 100.602 43.9241 100.027C44.3039 98.4653 44.1822 96.8284 43.5751 95.3357C43.3856 94.8334 43.237 94.32 43.0804 93.7797C43.0282 93.5995 42.9752 93.4161 42.9194 93.2294C47.7296 91.4057 52.8478 88.9535 54.6477 83.2488C55.3524 81.2774 55.4112 79.1427 54.8157 77.1374C54.2197 75.1299 52.997 73.3506 51.3159 72.0444C49.0279 70.2159 46.3553 68.8947 43.4852 68.1739ZM35.5499 75.1711C35.6446 75.1446 35.74 75.12 35.8357 75.0972C38.9673 74.6197 42.1714 75.2559 44.8578 76.8883C46.0418 77.6869 46.5268 78.5742 46.6101 79.428C46.696 80.3071 46.3665 81.2596 45.7044 82.1753C44.4535 83.905 42.1706 85.2895 40.1085 85.5476C38.6052 82.1898 37.0786 78.6961 35.5499 75.1711Z" fill="#AC8AF7"/>
<path d="M62.5712 62.0276C65.9804 60.5005 70.2034 60.2367 73.508 61.3104C74.3402 61.5455 75.0623 62.0541 75.5507 62.7491C76.0359 63.4398 76.2598 64.2721 76.185 65.1042C76.1801 65.6444 76.0434 66.1758 75.7862 66.6552C75.5244 67.1433 75.1453 67.563 74.681 67.879C74.2166 68.1949 73.6806 68.398 73.1184 68.4705C72.556 68.5432 71.984 68.4835 71.4505 68.2963L71.4099 68.2821L71.3718 68.2626C71.0988 68.124 70.8089 68.0197 70.5089 67.9518L70.49 67.9477C68.1654 67.3488 65.9726 68.3411 65.1717 69.5603C64.7896 70.1417 64.7423 70.7285 65.0604 71.2624C65.4012 71.834 66.2368 72.4756 67.9279 72.9328C68.3929 73.0567 68.8696 73.1761 69.3532 73.2976C70.6903 73.6334 72.08 73.9822 73.4237 74.4657L73.4288 74.4677C79.628 76.7553 81.9363 81.4933 81.1461 85.9496C80.3643 90.3566 76.5697 94.3672 70.8633 95.3133C68.7868 95.7597 66.6259 95.6727 64.5944 95.0611C62.5578 94.4475 60.722 93.328 59.2695 91.8131L59.2316 91.7736C58.7731 91.2029 58.4647 90.5324 58.328 89.821C58.2022 89.179 58.2684 88.5156 58.5186 87.9087C58.7673 87.3055 59.1879 86.7834 59.7307 86.403C60.3041 85.9718 60.9953 85.7131 61.7187 85.6591C62.4398 85.6054 63.1613 85.7574 63.7944 86.0961C64.4268 86.3924 65.015 86.7704 65.543 87.2199L65.5529 87.2281C66.487 88.0566 67.617 88.2725 68.7006 88.0725C69.8 87.8697 70.8339 87.2387 71.4988 86.4016C72.1594 85.5697 72.4246 84.5815 72.1099 83.6222C71.7932 82.6559 70.8409 81.5733 68.7487 80.6682C68.2018 80.4429 67.6347 80.2613 67.0448 80.0845C66.8858 80.0368 66.724 79.9893 66.5603 79.9411C66.1241 79.8127 65.6754 79.6805 65.2353 79.5347C64.9322 79.4345 64.6315 79.3396 64.3338 79.2454C63.52 78.9883 62.7266 78.7378 61.963 78.4017C60.3012 77.8529 58.8654 76.7992 57.8694 75.3964C56.8693 73.988 56.3662 72.3038 56.4346 70.5953C56.44 66.4317 59.1437 63.5632 62.5712 62.0276Z" fill="#AC8AF7"/>
<path d="M105.793 61.5841C105.132 61.2709 104.401 61.1223 103.666 61.1514C102.931 61.1808 102.215 61.387 101.583 61.752C100.955 62.1143 100.429 62.6217 100.052 63.229C99.7062 63.7405 99.467 64.3124 99.3478 64.913C99.2285 65.5131 99.2314 66.1298 99.356 66.7285C99.4791 67.4979 99.6156 68.2462 99.7504 68.9841C99.9736 70.2053 100.191 71.399 100.334 72.616L100.339 72.6469C100.665 74.5556 100.836 76.486 100.852 78.4205L100.853 78.448C100.964 80.5371 100.231 82.5856 98.8086 84.1587L98.786 84.1867C98.3234 84.7617 97.7048 85.2006 96.9993 85.4543C96.2941 85.708 95.53 85.7663 94.7925 85.6227C94.0549 85.4791 93.3732 85.1395 92.8234 84.6415C92.2736 84.1435 91.877 83.5051 91.679 82.8014C91.2565 81.3182 91.0119 79.7925 90.9498 78.255L91.6715 67.1098C91.6822 66.9643 91.6944 66.8149 91.7067 66.6641C91.7342 66.3257 91.7623 65.9809 91.774 65.6593C91.791 65.1862 91.7764 64.6995 91.6628 64.2389C91.5465 63.7682 91.3252 63.3203 90.9328 62.939C90.5442 62.5615 90.0196 62.283 89.3595 62.0934C88.1659 61.7583 87.1566 61.7689 86.3155 62.1151C85.474 62.4612 84.8975 63.104 84.4895 63.8465C84.0847 64.5827 83.8246 65.4543 83.6279 66.3274C83.4819 66.9752 83.3646 67.6552 83.2531 68.3026C83.2145 68.5256 83.1769 68.7446 83.1387 68.9574L83.1378 68.9636C82.5413 72.5137 82.3638 76.1181 82.6086 79.7072C82.6542 81.6468 83.0712 83.5613 83.8387 85.3529C84.7044 87.6647 86.2726 89.6676 88.3361 91.0974C90.404 92.5301 92.8717 93.3195 95.4125 93.3612C97.9533 93.4029 100.447 92.6948 102.564 91.3311C104.677 89.9692 106.315 88.0174 107.261 85.7338C108.584 82.8248 109.205 79.6612 109.077 76.4841C108.999 74.1646 108.869 71.8273 108.739 69.5018C108.676 68.3611 108.612 67.2228 108.555 66.0915C108.527 64.9571 108.141 63.8583 107.45 62.9426C107.022 62.3637 106.453 61.8968 105.793 61.5841Z" fill="#AC8AF7"/>
<path d="M129.19 79.0598C129.123 79.1424 129.053 79.228 128.979 79.3169C128.441 76.3084 127.943 73.3009 127.444 70.2888C127.265 69.2081 127.085 68.1228 126.904 67.0406L126.884 66.9199L126.818 66.8156C126.693 66.6193 126.681 66.4268 126.681 66.0163V65.9688L126.673 65.9218C126.538 65.0741 126.143 64.2851 125.539 63.6583C124.936 63.0331 124.154 62.598 123.294 62.4091C122.435 62.2036 121.532 62.2489 120.699 62.5395C119.869 62.8293 119.145 63.3501 118.618 64.0367C118.18 64.5636 117.82 65.148 117.551 65.7725C116.941 67.1177 116.324 68.4663 115.707 69.8185L115.696 69.8419C114.153 73.2178 112.601 76.6163 111.093 80.0415L111.088 80.0526C110.163 82.2735 109.399 84.6137 108.637 86.9467C108.485 87.4124 108.333 87.8778 108.18 88.342C107.905 89.0783 107.785 89.8603 107.826 90.642C107.776 91.3418 107.949 92.04 108.322 92.642C108.701 93.2563 109.27 93.7396 109.948 94.0241C110.667 94.3296 111.47 94.3944 112.231 94.2084C112.99 94.0227 113.664 93.5977 114.147 93.0003C114.764 92.2643 115.294 91.4616 115.727 90.6112C117.004 88.0773 118.225 85.5126 119.44 82.9589C119.91 81.9712 120.367 81.0866 120.887 80.1232C120.922 80.242 120.959 80.3578 120.996 80.474C121.541 82.7999 122.461 85.0279 123.721 87.0761C123.959 87.5099 124.292 87.8891 124.695 88.1876C125.103 88.4897 125.574 88.7017 126.075 88.8094C126.576 88.9171 127.095 88.9176 127.596 88.8108C128.097 88.7044 128.569 88.4921 128.977 88.1915L129.785 87.6049L136.057 82.4814L135.686 84.7737C135.177 87.9245 134.672 91.0491 134.135 94.1745C133.784 95.5597 133.784 97.0066 134.136 98.3913C134.289 99.1707 134.677 99.8881 135.252 100.452C135.832 101.021 136.575 101.408 137.384 101.562C138.193 101.716 139.032 101.63 139.79 101.316C140.538 101.007 141.174 100.49 141.618 99.8315C142.652 98.5872 143.296 97.0808 143.472 95.4915C143.739 93.2472 144.039 90.9723 144.34 88.6981C144.687 86.0768 145.033 83.4562 145.326 80.8859L145.327 80.878C145.609 78.0644 145.745 75.2392 145.735 72.4124C145.797 71.5191 145.568 70.6292 145.079 69.8686C144.589 69.1054 143.863 68.5121 143.004 68.1726C142.112 67.779 141.112 67.6737 140.153 67.8727C139.201 68.0703 138.338 68.5574 137.691 69.263C136.534 70.3006 135.449 71.4109 134.443 72.5868L134.436 72.5948C133.337 73.9229 132.246 75.2771 131.161 76.6225C130.502 77.4404 129.844 78.2564 129.19 79.0598Z" fill="#AC8AF7"/>
</g>
<defs>
<clipPath id="clip0_3_501">
<rect width="170" height="106" fill="white"/>
</clipPath>
</defs>
</svg>
