<svg width="20" height="20" viewBox="0 0 20 20" fill="none" xmlns="http://www.w3.org/2000/svg">
<path d="M5.00002 15.4775C6.83835 15.4775 8.33335 13.9825 8.33335 12.1441V3.68998L15.8334 6.41664V12.6083C15.3291 12.3079 14.7537 12.1476 14.1667 12.1441C12.3284 12.1441 10.8334 13.6391 10.8334 15.4775C10.8334 17.3158 12.3284 18.8108 14.1667 18.8108C16.005 18.8108 17.5 17.3158 17.5 15.4775V5.83331C17.5001 5.66234 17.4476 5.49548 17.3494 5.35546C17.2513 5.21544 17.1124 5.10906 16.9517 5.05081L7.78502 1.71748C7.65918 1.67148 7.5241 1.65653 7.39124 1.6739C7.25839 1.69127 7.13169 1.74045 7.02192 1.81726C6.91214 1.89408 6.82252 1.99625 6.76067 2.11511C6.69883 2.23397 6.66659 2.36599 6.66669 2.49998V9.27498C6.16241 8.97452 5.58701 8.81428 5.00002 8.81081C3.16169 8.81081 1.66669 10.3058 1.66669 12.1441C1.66669 13.9825 3.16169 15.4775 5.00002 15.4775Z" fill="url(#paint0_linear_3_620)"/>
<defs>
<linearGradient id="paint0_linear_3_620" x1="9.58335" y1="1.66687" x2="9.58335" y2="18.8108" gradientUnits="userSpaceOnUse">
<stop stop-color="#AC8AF7"/>
<stop offset="1" stop-color="#6E4CEE"/>
</linearGradient>
</defs>
</svg>
