<svg width="24" height="24" viewBox="0 0 24 24" fill="none" xmlns="http://www.w3.org/2000/svg">
<path d="M21.9998 10.4999V15.4999C21.9998 18.9999 19.9998 20.4999 16.9998 20.4999H6.99982C3.99982 20.4999 1.99982 18.9999 1.99982 15.4999V8.49988C1.99982 4.99988 3.99982 3.49988 6.99982 3.49988H13.9998" stroke="white" stroke-width="1.5" stroke-miterlimit="10" stroke-linecap="round" stroke-linejoin="round"/>
<path d="M7.00018 9L10.1302 11.5C11.1602 12.32 12.8502 12.32 13.8802 11.5L15.0602 10.56" stroke="white" stroke-width="1.5" stroke-miterlimit="10" stroke-linecap="round" stroke-linejoin="round"/>
<path d="M19.4998 8C20.8805 8 21.9998 6.88071 21.9998 5.5C21.9998 4.11929 20.8805 3 19.4998 3C18.1191 3 16.9998 4.11929 16.9998 5.5C16.9998 6.88071 18.1191 8 19.4998 8Z" fill="white"/>
</svg>
