<svg width="18" height="19" viewBox="0 0 18 19" fill="none" xmlns="http://www.w3.org/2000/svg">
<path d="M15.25 10.3661V8.74988H14V10.6249C14 10.7906 14.0659 10.9496 14.1831 11.0668L15.875 12.7586V13.7499H2.125V12.7586L3.81687 11.0668C3.93409 10.9496 3.99996 10.7906 4 10.6249V8.12488C3.99826 7.24662 4.22831 6.38346 4.66693 5.62258C5.10555 4.86169 5.73719 4.23002 6.49806 3.79138C7.25893 3.35274 8.12209 3.12265 9.00034 3.12436C9.87859 3.12608 10.7408 3.35952 11.5 3.80113V2.40425C10.9051 2.14083 10.2723 1.97293 9.625 1.90675V0.624878H8.375V1.90613C6.83411 2.06296 5.4061 2.78558 4.36711 3.93424C3.32811 5.08291 2.75194 6.57603 2.75 8.12488V10.3661L1.05812 12.058C0.940907 12.1752 0.875035 12.3341 0.875 12.4999V14.3749C0.875 14.5406 0.940848 14.6996 1.05806 14.8168C1.17527 14.934 1.33424 14.9999 1.5 14.9999H5.875V15.6249C5.875 16.4537 6.20424 17.2485 6.79029 17.8346C7.37634 18.4206 8.1712 18.7499 9 18.7499C9.8288 18.7499 10.6237 18.4206 11.2097 17.8346C11.7958 17.2485 12.125 16.4537 12.125 15.6249V14.9999H16.5C16.6658 14.9999 16.8247 14.934 16.9419 14.8168C17.0592 14.6996 17.125 14.5406 17.125 14.3749V12.4999C17.125 12.3341 17.0591 12.1752 16.9419 12.058L15.25 10.3661ZM10.875 15.6249C10.875 16.1222 10.6775 16.5991 10.3258 16.9507C9.97419 17.3023 9.49728 17.4999 9 17.4999C8.50272 17.4999 8.02581 17.3023 7.67417 16.9507C7.32254 16.5991 7.125 16.1222 7.125 15.6249V14.9999H10.875V15.6249Z" fill="black"/>
</svg>
