<svg width="36" height="36" viewBox="0 0 36 36" fill="none" xmlns="http://www.w3.org/2000/svg">
<rect width="36" height="36" rx="18" fill="white"/>
<g clip-path="url(#clip0_3_625)">
<path d="M21.3962 21.8713C21.8816 21.3934 21.6197 20.2959 20.8269 19.0281C21.115 18.9831 21.3844 18.9144 21.5881 18.8091C22.3213 18.4306 22.8162 17.7409 23.1909 17.0275C23.5938 16.2622 23.8641 15.4209 24.3897 14.7241C24.4784 14.6062 24.5672 14.5006 24.6556 14.4012C25.7897 14.5372 26.695 14.7809 26.695 14.7809L27.0409 13.9019C26.6043 13.7452 26.1566 13.6212 25.7016 13.5309C25.9803 13.3725 26.1622 13.3231 26.1622 13.3231L25.8344 12.4369C25.3087 12.6591 24.8822 12.9869 24.525 13.3794C23.19 13.3047 21.8456 13.5706 20.785 14.3931C19.9875 15.0119 19.4487 15.8697 18.9419 16.7278C18.4928 16.2871 18.0145 15.8771 17.5103 15.5006C17.6059 15.3434 17.7084 15.2022 17.8187 15.0931C18.4853 14.4369 19.3647 14.0172 19.9416 13.2663C21.1541 11.6894 20.2672 9.2175 19.2697 7.9375C19.0909 8.10969 18.7953 8.36062 18.5728 8.55875C19.6331 9.64469 20.3747 11.5459 19.5438 12.9666C19.0794 13.7606 18.2212 14.2587 17.6212 14.9409C17.5175 15.0594 17.4247 15.2094 17.3406 15.375C15.7716 14.2497 14.3316 13.7969 13.7609 14.3588C13.7043 14.4167 13.6576 14.4837 13.6228 14.5569L13.6206 14.5547L13.6053 14.5994C13.5841 14.6478 13.5647 14.6981 13.5516 14.7531L9.625 26.0625L21.0819 22.0569L21.0788 22.0538C21.2019 22.0141 21.3103 21.9556 21.3962 21.8713ZM11.9041 24.6038L10.9478 24.1581L11.5931 22.2987L14.5528 23.6775L11.9041 24.6038ZM17.2013 22.7516L12.2391 20.4394L12.8844 18.5803L16.5925 20.4416C14.3791 19.0009 13.5297 16.7206 13.5297 16.7206L13.7503 16.0853C14.1425 17.0775 15.0053 18.3131 16.1909 19.4794C17.3866 20.6562 18.6537 21.5087 19.6666 21.8897L17.2013 22.7516ZM19.1072 16.8953C19.6253 16.1525 20.1594 15.4028 20.9019 14.8694C21.6087 14.3612 22.7562 14.2684 23.8441 14.3294C23.4766 14.9713 23.205 15.6834 22.9612 16.3675C22.6666 17.1956 22.2716 18.0544 21.5184 18.5622C21.3153 18.6991 21.0306 18.7991 20.7266 18.8731C20.3088 18.2328 19.7606 17.5559 19.1072 16.8953Z" fill="url(#paint0_linear_3_625)"/>
<path d="M16.1978 13.875C16.5109 13.875 15.5722 12.9375 15.729 12.1153C16.3303 12.0691 17.7047 12.34 16.9047 11.2412C17.8097 11.4006 18.2784 10.725 17.424 10.0847C17.7084 10.1047 18.1503 9.56844 17.8331 9.50062C16.8169 9.28531 16.419 9.835 17.064 10.6278C16.3859 10.5016 15.8331 10.8169 16.3425 11.525C14.3844 11.2809 15.4984 13.875 16.1978 13.875ZM22.9203 13.0419C23.2137 12.9094 22.7159 12.0341 22.554 11.8103C23.7925 11.6778 23.7456 11.3087 22.969 10.5181C25.0803 10.5891 23.0344 9.38906 23.3212 8.91406C23.5697 8.50219 24.3319 8.93406 24.2612 8.70469C24.0231 7.9375 21.7643 8.45625 23.1937 9.88875C21.9462 9.91312 21.8265 10.3209 22.7562 11.1662C21.1369 11.1841 22.4581 13.25 22.9203 13.0419ZM28.2803 16.1328C27.7859 16.2712 27.7097 16.2194 27.7756 16.7116C26.6337 16.1859 25.4256 15.455 26.1587 17.3916C24.8619 16.6194 24.9265 17.2956 24.684 18.4084C24.3684 18.1625 23.92 17.5144 23.92 17.5144L23.445 17.9178C23.445 17.9178 24.3153 19.1453 24.745 19.0756C25.1228 19.0147 25.3284 18.3006 25.3493 17.6712C26.5525 18.1791 27.1284 18.2469 26.5781 16.7619C27.54 17.3022 28.7193 17.7788 28.2803 16.1328ZM10.8903 10.5741L11.774 11.4581L10.8903 12.3419L10.0062 11.4581L10.8903 10.5741ZM13.0075 14.2494L12.1231 15.1331L11.239 14.2487L12.1234 13.3647L13.0075 14.2494ZM14.3812 9.1875L15.265 10.0712L14.3809 10.9556L13.4972 10.0712L14.3812 9.1875ZM24.0034 21.5262L23.119 20.6422L24.0028 19.7578L24.8872 20.6419L24.0034 21.5262ZM22.0328 24.5581L21.149 23.6744L22.0328 22.7903L22.9169 23.6744L22.0328 24.5581ZM25.9103 25.2562L25.0259 24.3722L25.9094 23.4878L26.7937 24.3719L25.9103 25.2562ZM26.794 21.23L25.9103 20.3459L26.794 19.4622L27.6778 20.3459L26.794 21.23ZM25.3187 10.125L26.2025 11.0087L25.3184 11.8928L24.4347 11.0087L25.3187 10.125Z" fill="url(#paint1_linear_3_625)"/>
</g>
<defs>
<linearGradient id="paint0_linear_3_625" x1="18.333" y1="7.9375" x2="18.333" y2="26.0625" gradientUnits="userSpaceOnUse">
<stop stop-color="#AC8AF7"/>
<stop offset="1" stop-color="#6E4CEE"/>
</linearGradient>
<linearGradient id="paint1_linear_3_625" x1="19.1905" y1="8.35083" x2="19.1905" y2="25.2562" gradientUnits="userSpaceOnUse">
<stop stop-color="#AC8AF7"/>
<stop offset="1" stop-color="#6E4CEE"/>
</linearGradient>
<clipPath id="clip0_3_625">
<rect width="20" height="20" fill="white" transform="translate(9 7)"/>
</clipPath>
</defs>
</svg>
