<svg width="25" height="24" viewBox="0 0 25 24" fill="none" xmlns="http://www.w3.org/2000/svg">
<path d="M10.4302 12.99C10.5302 12.99 12.8502 13.09 14.2302 12.75H14.2402C15.8302 12.36 18.0402 11.24 18.6102 7.58C18.6102 7.58 19.8802 3 13.5802 3H8.17016C7.68016 3 7.26016 3.36 7.18016 3.84L4.88016 18.4C4.83016 18.7 5.07016 18.98 5.37016 18.98H8.80016L9.64016 13.66C9.70016 13.28 10.0302 12.99 10.4302 12.99Z" fill="white"/>
<path d="M19.4901 8.29004C18.6801 12.02 16.1301 13.99 12.0701 13.99H10.6001L9.57005 20.51C9.53005 20.77 9.73005 21 9.99005 21H11.8901C12.2301 21 12.5301 20.75 12.5801 20.41C12.6601 20.01 13.1001 17.09 13.1901 16.59C13.2401 16.25 13.5401 16 13.8801 16H14.3201C17.1401 16 19.3501 14.85 20.0001 11.54C20.2601 10.2 20.1201 9.10004 19.4901 8.29004Z" fill="white"/>
</svg>
