<svg width="200" height="200" viewBox="0 0 200 200" fill="none" xmlns="http://www.w3.org/2000/svg">
<path d="M167.907 50.8137C167.907 50.8137 163.208 53.3169 162.958 54.5684C154.948 96.6211 131.111 108.158 95.3162 108.158L77.0436 107.869C72.5381 107.869 66.3783 114.143 65.6276 118.398L56.1823 173.392L58.7705 177.722L56.2674 194.743C55.7666 197.247 57.519 199.75 60.2725 200C60.5229 200 60.7733 200 61.0233 200H93.3135C97.0682 200 100.322 197.247 101.073 193.492L101.324 191.74C101.324 191.74 107.323 153.245 107.331 153.191C108.036 148.672 110.531 144.681 115.591 144.681H120.347C151.636 144.681 176.167 131.915 183.426 95.1188C186.43 79.8497 184.928 66.8333 176.918 57.8223C174.415 54.8184 171.411 52.5657 167.907 50.8137Z" fill="#38B5FB"/>
<path d="M160.043 42.6801C152.156 40.1371 143.592 39.8027 135.366 39.8027H86.5555C82.8008 39.8027 76.2336 44.7422 75.4824 48.4969L64.4199 116.396L68.2824 118.398C69.0332 114.143 72.7879 110.889 77.0434 110.889H95.316C131.111 110.889 158.988 96.4207 167.248 54.368C167.499 53.1164 167.651 52.1777 167.907 50.8137C167.907 50.8137 165.285 44.9152 163.146 43.825C162.151 43.4059 161.11 43.0242 160.043 42.6801Z" fill="#1668D3"/>
<path d="M79.0459 51.0637C79.5467 47.309 82.8006 44.5555 86.8057 44.5555H135.366C141.123 44.5555 146.63 45.0562 151.386 45.807C154.64 46.3078 157.894 47.0586 161.148 48.0598C163.651 48.8105 165.904 49.8121 167.907 50.8133C170.41 35.2937 167.907 24.7809 159.396 15.0184C150.385 4.50547 133.614 0 112.087 0H50.0096C45.7541 0 41.9995 3.25391 41.2487 7.50937L15.2159 171.714C14.7151 174.718 16.7178 177.471 19.7213 177.722C19.9717 177.722 20.2221 177.722 20.4721 177.722H58.7702L68.5323 116.646L79.0459 51.0637Z" fill="#1B77F0"/>
</svg>
