<svg width="24" height="24" viewBox="0 0 24 24" fill="none" xmlns="http://www.w3.org/2000/svg">
<path d="M16.625 7.625C16.625 10.1782 14.5532 12.25 12 12.25C9.44682 12.25 7.375 10.1782 7.375 7.625C7.375 5.07182 9.44682 3 12 3C14.5532 3 16.625 5.07182 16.625 7.625ZM12 16.125C13.0855 16.125 14.12 15.8993 15.0587 15.5H17C19.2094 15.5 21 17.2906 21 19.5V20.125C21 20.6079 20.6079 21 20.125 21H3.875C3.39213 21 3 20.6079 3 20.125V19.5C3 17.2906 4.79057 15.5 7 15.5H8.942C9.88224 15.8988 10.9132 16.125 12 16.125Z" stroke="#CDD9FF" stroke-width="2"/>
</svg>
