<svg width="19" height="16" viewBox="0 0 19 16" fill="none" xmlns="http://www.w3.org/2000/svg">
<path fill-rule="evenodd" clip-rule="evenodd" d="M1.40953 2.60677C1.28741 2.6222 1.17274 2.67396 1.08039 2.75535C0.988047 2.83674 0.922284 2.94399 0.891633 3.06321C0.860981 3.18242 0.866856 3.3081 0.908495 3.42393C0.950135 3.53977 1.02562 3.64042 1.12515 3.71284L6.16275 7.37205L11.5474 4.26323C11.6885 4.18178 11.8561 4.15971 12.0135 4.20187C12.1708 4.24403 12.305 4.34697 12.3864 4.48805C12.4679 4.62913 12.49 4.79679 12.4478 4.95414C12.4056 5.11149 12.3027 5.24565 12.1616 5.32711L6.77698 8.43592L7.42714 14.6282C7.44009 14.7506 7.48952 14.8663 7.56902 14.9603C7.64851 15.0543 7.75441 15.1222 7.87298 15.1553C7.99155 15.1883 8.11732 15.185 8.23398 15.1457C8.35064 15.1064 8.4528 15.033 8.52722 14.935L18.7271 1.48073C18.8 1.38441 18.8429 1.26874 18.8504 1.14818C18.8579 1.02762 18.8297 0.907526 18.7693 0.802917C18.7089 0.698307 18.619 0.613829 18.5108 0.560046C18.4027 0.506264 18.281 0.485566 18.1612 0.500541L1.40953 2.60677Z" fill="white"/>
</svg>
