<svg width="90" height="90" viewBox="0 0 90 90" fill="none" xmlns="http://www.w3.org/2000/svg">
<g filter="url(#filter0_d_2233_794)">
<rect x="20" y="20" width="40" height="40" rx="20" fill="white"/>
<path d="M34.5833 38.1251V46.8751C34.5833 46.9901 34.6766 47.0834 34.7916 47.0834H45.2083C45.2635 47.0834 45.3165 47.0615 45.3556 47.0224C45.3946 46.9833 45.4166 46.9304 45.4166 46.8751V38.1251C45.4166 38.0698 45.3946 38.0169 45.3556 37.9778C45.3165 37.9387 45.2635 37.9168 45.2083 37.9168H43.1249C42.9592 37.9168 42.8002 37.8509 42.683 37.7337C42.5658 37.6165 42.4999 37.4575 42.4999 37.2918C42.4999 37.126 42.5658 36.967 42.683 36.8498C42.8002 36.7326 42.9592 36.6668 43.1249 36.6668H45.2083C46.0133 36.6668 46.6666 37.3201 46.6666 38.1251V46.8751C46.6666 47.2619 46.5129 47.6328 46.2394 47.9063C45.966 48.1798 45.595 48.3334 45.2083 48.3334H34.7916C34.4048 48.3334 34.0339 48.1798 33.7604 47.9063C33.4869 47.6328 33.3333 47.2619 33.3333 46.8751V38.1251C33.3333 37.3201 33.9866 36.6668 34.7916 36.6668H36.8749C37.0407 36.6668 37.1996 36.7326 37.3169 36.8498C37.4341 36.967 37.4999 37.126 37.4999 37.2918C37.4999 37.4575 37.4341 37.6165 37.3169 37.7337C37.1996 37.8509 37.0407 37.9168 36.8749 37.9168H34.7916C34.7363 37.9168 34.6833 37.9387 34.6443 37.9778C34.6052 38.0169 34.5833 38.0698 34.5833 38.1251ZM40.4416 31.0168L43.1499 33.7251C43.2322 33.8015 43.2923 33.8987 43.324 34.0064C43.3557 34.1141 43.3577 34.2283 43.3299 34.3371C43.3021 34.4459 43.2455 34.5451 43.166 34.6244C43.0865 34.7037 42.9871 34.7601 42.8783 34.7876C42.7696 34.8154 42.6555 34.8135 42.5478 34.782C42.4402 34.7504 42.343 34.6905 42.2666 34.6084L40.6249 32.9668V41.8751C40.6249 42.0409 40.5591 42.1998 40.4419 42.317C40.3246 42.4343 40.1657 42.5001 39.9999 42.5001C39.8342 42.5001 39.6752 42.4343 39.558 42.317C39.4408 42.1998 39.3749 42.0409 39.3749 41.8751V32.9668L37.7333 34.6084C37.6147 34.7188 37.458 34.7789 37.2961 34.7761C37.1341 34.7733 36.9796 34.7078 36.8649 34.5934C36.7505 34.4788 36.6851 34.3242 36.6823 34.1623C36.6795 34.0004 36.7396 33.8437 36.8499 33.7251L39.5583 31.0168C39.6754 30.8997 39.8343 30.834 39.9999 30.834C40.1655 30.834 40.3244 30.8997 40.4416 31.0168Z" fill="url(#paint0_linear_2233_794)"/>
</g>
<defs>
<filter id="filter0_d_2233_794" x="0" y="0" width="90" height="90" filterUnits="userSpaceOnUse" color-interpolation-filters="sRGB">
<feFlood flood-opacity="0" result="BackgroundImageFix"/>
<feColorMatrix in="SourceAlpha" type="matrix" values="0 0 0 0 0 0 0 0 0 0 0 0 0 0 0 0 0 0 127 0" result="hardAlpha"/>
<feOffset dx="5" dy="5"/>
<feGaussianBlur stdDeviation="12.5"/>
<feComposite in2="hardAlpha" operator="out"/>
<feColorMatrix type="matrix" values="0 0 0 0 0.948437 0 0 0 0 0.9 0 0 0 0 1 0 0 0 1 0"/>
<feBlend mode="normal" in2="BackgroundImageFix" result="effect1_dropShadow_2233_794"/>
<feBlend mode="normal" in="SourceGraphic" in2="effect1_dropShadow_2233_794" result="shape"/>
</filter>
<linearGradient id="paint0_linear_2233_794" x1="39.9999" y1="30.834" x2="39.9999" y2="48.3334" gradientUnits="userSpaceOnUse">
<stop stop-color="#AC8AF7"/>
<stop offset="1" stop-color="#6E4CEE"/>
</linearGradient>
</defs>
</svg>
