<svg width="36" height="36" viewBox="0 0 36 36" fill="none" xmlns="http://www.w3.org/2000/svg">
<rect width="36" height="36" rx="18" fill="white"/>
<path d="M26.1675 13.3537C25.9085 12.7663 25.5685 12.2181 25.1575 11.7249L22.9788 13.9037C23.4888 14.2056 24.0897 14.316 24.6737 14.2152C25.2577 14.1144 25.7868 13.809 26.1663 13.3537M22.0938 13.0199L24.2725 10.8412C23.7798 10.4302 23.232 10.0903 22.645 9.8312C22.1894 10.2107 21.8838 10.74 21.783 11.3243C21.6822 11.9087 21.7928 12.5098 22.095 13.0199M20.5 11.7499C20.5 12.5599 20.7575 13.3099 21.1938 13.9224L20.1875 14.9287L15.8275 10.5674C16.6111 9.99841 17.5056 9.6006 18.4529 9.39989C19.4003 9.19918 20.3793 9.20005 21.3263 9.40245C20.7905 10.0674 20.4989 10.896 20.5 11.7499ZM21.0712 15.8124L22.0775 14.8062C22.69 15.2437 23.44 15.4999 24.25 15.4999C25.1038 15.5011 25.9322 15.21 26.5975 14.6749C26.6975 15.1424 26.75 15.6274 26.75 16.1249C26.75 17.6374 26.2612 19.0374 25.4325 20.1737L21.0712 15.8124ZM24.605 21.1137L20.1875 16.6962L19.4313 17.4524C20.7313 18.9342 21.529 20.7895 21.71 22.7524C22.81 22.4487 23.8 21.8762 24.605 21.1137ZM13.2463 14.2899C13.55 13.1899 14.1213 12.1999 14.8837 11.3949L19.3038 15.8124L18.5475 16.5687C17.0657 15.2686 15.2092 14.471 13.2463 14.2899ZM11.125 15.4999C10.6277 15.4999 10.1508 15.6975 9.79917 16.0491C9.44754 16.4008 9.25 16.8777 9.25 17.3749V18.6249C9.25 20.7798 10.106 22.8465 11.6298 24.3702C13.1535 25.8939 15.2201 26.7499 17.375 26.7499H18.625C19.1223 26.7499 19.5992 26.5524 19.9508 26.2008C20.3025 25.8491 20.5 25.3722 20.5 24.8749V23.6249C20.5 21.4701 19.644 19.4034 18.1202 17.8797C16.5965 16.356 14.5299 15.4999 12.375 15.4999H11.125ZM13.495 19.7449C13.5531 19.6867 13.622 19.6406 13.698 19.6091C13.7739 19.5775 13.8553 19.5613 13.9375 19.5613C14.0197 19.5613 14.1011 19.5775 14.177 19.6091C14.253 19.6406 14.3219 19.6867 14.38 19.7449L16.255 21.6199C16.3131 21.6781 16.3592 21.747 16.3907 21.823C16.4221 21.8989 16.4383 21.9803 16.4383 22.0624C16.4383 22.1446 16.4221 22.226 16.3907 22.3019C16.3592 22.3779 16.3131 22.4468 16.255 22.5049C16.1969 22.5631 16.1279 22.6092 16.052 22.6406C15.9761 22.6721 15.8947 22.6882 15.8125 22.6882C15.7303 22.6882 15.6489 22.6721 15.573 22.6406C15.4971 22.6092 15.4281 22.5631 15.37 22.5049L13.495 20.6299C13.4368 20.5719 13.3906 20.5029 13.3591 20.427C13.3276 20.3511 13.3114 20.2697 13.3114 20.1874C13.3114 20.1052 13.3276 20.0238 13.3591 19.9479C13.3906 19.872 13.4368 19.803 13.495 19.7449Z" fill="url(#paint0_linear_3_640)"/>
<defs>
<linearGradient id="paint0_linear_3_640" x1="18" y1="9.25" x2="18" y2="26.7499" gradientUnits="userSpaceOnUse">
<stop stop-color="#AC8AF7"/>
<stop offset="1" stop-color="#6E4CEE"/>
</linearGradient>
</defs>
</svg>
