<svg width="30" height="30" viewBox="0 0 30 30" fill="none" xmlns="http://www.w3.org/2000/svg">
<path d="M23.8773 18.4802C23.4888 18.8567 23.3103 19.4012 23.3988 19.9352L24.7323 27.3152C24.8448 27.9407 24.5808 28.5737 24.0573 28.9352C23.5443 29.3102 22.8618 29.3552 22.3023 29.0552L15.6588 25.5902C15.4278 25.4672 15.1713 25.4012 14.9088 25.3937H14.5023C14.3613 25.4147 14.2233 25.4597 14.0973 25.5287L7.45234 29.0102C7.12384 29.1752 6.75184 29.2337 6.38734 29.1752C5.49934 29.0072 4.90684 28.1612 5.05234 27.2687L6.38734 19.8887C6.47584 19.3502 6.29734 18.8027 5.90884 18.4202L0.492337 13.1702C0.0393372 12.7307 -0.118163 12.0707 0.0888372 11.4752C0.289837 10.8812 0.802837 10.4477 1.42234 10.3502L8.87734 9.26874C9.44434 9.21024 9.94234 8.86524 10.1973 8.35524L13.4823 1.62024C13.5603 1.47024 13.6608 1.33224 13.7823 1.21524L13.9173 1.11024C13.9878 1.03224 14.0688 0.967744 14.1588 0.915244L14.3223 0.855244L14.5773 0.750244H15.2088C15.7728 0.808744 16.2693 1.14624 16.5288 1.65024L19.8573 8.35524C20.0973 8.84574 20.5638 9.18624 21.1023 9.26874L28.5573 10.3502C29.1873 10.4402 29.7138 10.8752 29.9223 11.4752C30.1188 12.0767 29.9493 12.7367 29.4873 13.1702L23.8773 18.4802Z" fill="#FDDD1A"/>
</svg>
