<svg width="36" height="36" viewBox="0 0 36 36" fill="none" xmlns="http://www.w3.org/2000/svg">
<path d="M26.8773 21.4802C26.4888 21.8567 26.3103 22.4012 26.3988 22.9352L27.7323 30.3152C27.8448 30.9407 27.5808 31.5737 27.0573 31.9352C26.5443 32.3102 25.8618 32.3552 25.3023 32.0552L18.6588 28.5902C18.4278 28.4672 18.1713 28.4012 17.9088 28.3937H17.5023C17.3613 28.4147 17.2233 28.4597 17.0973 28.5287L10.4523 32.0102C10.1238 32.1752 9.75184 32.2337 9.38734 32.1752C8.49934 32.0072 7.90684 31.1612 8.05234 30.2687L9.38734 22.8887C9.47584 22.3502 9.29734 21.8027 8.90884 21.4202L3.49234 16.1702C3.03934 15.7307 2.88184 15.0707 3.08884 14.4752C3.28984 13.8812 3.80284 13.4477 4.42234 13.3502L11.8773 12.2687C12.4443 12.2102 12.9423 11.8652 13.1973 11.3552L16.4823 4.62024C16.5603 4.47024 16.6608 4.33224 16.7823 4.21524L16.9173 4.11024C16.9878 4.03224 17.0688 3.96774 17.1588 3.91524L17.3223 3.85524L17.5773 3.75024H18.2088C18.7728 3.80874 19.2693 4.14624 19.5288 4.65024L22.8573 11.3552C23.0973 11.8457 23.5638 12.1862 24.1023 12.2687L31.5573 13.3502C32.1873 13.4402 32.7138 13.8752 32.9223 14.4752C33.1188 15.0767 32.9493 15.7367 32.4873 16.1702L26.8773 21.4802Z" fill="#FDDD1A"/>
</svg>
