<svg width="36" height="36" viewBox="0 0 36 36" fill="none" xmlns="http://www.w3.org/2000/svg">
<rect width="36" height="36" rx="18" fill="white"/>
<path d="M10.3312 21.7456C11.6344 22.8994 13.7062 24.3824 15.5219 24.1011C15.7125 24.0723 15.9 24.0212 16.0844 23.9573C15.7969 23.5642 15.5437 23.1775 15.3281 22.8259C14.6437 21.7073 14.4281 20.4225 14.5187 19.1952C13.875 19.3262 13.2937 19.6107 12.8094 20.007C12.6062 20.1732 12.3 20.0485 12.3469 19.7833C12.5469 18.7126 13.3781 17.8369 14.4781 17.6643C14.5594 17.6515 14.6437 17.6419 14.725 17.6387L15.3312 13.4424C15.3937 13.0013 15.5812 12.3973 16.1125 11.9754C16.6937 11.5184 17.7031 11.0006 19.35 10.8472L19.275 10.7801C18.6437 10.2815 17.0125 9.45053 13.4906 9.99705C9.96874 10.5436 8.64062 11.8316 8.17812 12.4995C7.99999 12.7552 7.97499 13.078 8.01874 13.3912L8.77499 18.6423C8.94687 19.8344 9.44687 20.9626 10.3312 21.7488V21.7456ZM13.0719 14.7272C13.2094 14.6281 13.4094 14.6632 13.4406 14.8326C13.4437 14.8486 13.4469 14.8678 13.45 14.8838C13.55 15.5805 13.0875 16.2261 12.4156 16.3316C11.7437 16.437 11.1187 15.9544 11.0187 15.2609C11.0156 15.2449 11.0156 15.2257 11.0125 15.2098C10.9937 15.0372 11.175 14.9413 11.3344 14.9956C11.6156 15.0915 11.9219 15.1203 12.2312 15.0723C12.5406 15.0244 12.8281 14.9029 13.0687 14.7272H13.0719ZM16.175 22.2826C17.0937 23.7815 18.6594 25.827 20.475 26.1082C22.2906 26.3895 24.3656 24.9097 25.6656 23.7527C26.55 22.9697 27.05 21.8415 27.2219 20.6462L27.9781 15.3951C28.0219 15.0819 27.9969 14.7591 27.8187 14.5034C27.3562 13.8355 26.0281 12.5475 22.5062 12.001C18.9844 11.4544 17.3562 12.2854 16.725 12.784C16.4812 12.9757 16.3656 13.2762 16.3219 13.5894L15.5656 18.8404C15.3937 20.0326 15.5531 21.263 16.1781 22.2826H16.175ZM20.6406 17.3383C20.4 17.1625 20.1156 17.0411 19.8031 16.9931C19.4906 16.9452 19.1844 16.974 18.9062 17.0699C18.7469 17.1242 18.5656 17.0283 18.5844 16.8557C18.5875 16.8397 18.5875 16.8206 18.5906 16.8046C18.6906 16.1078 19.3156 15.6284 19.9875 15.7339C20.6594 15.8394 21.1219 16.485 21.0219 17.1817C21.0187 17.1977 21.0156 17.2169 21.0125 17.2328C20.9812 17.4022 20.7812 17.4374 20.6437 17.3383H20.6406ZM24.8969 17.8337C24.8656 18.0031 24.6656 18.0382 24.5281 17.9392C24.2875 17.7634 24.0031 17.6419 23.6906 17.594C23.3781 17.5461 23.0719 17.5748 22.7937 17.6707C22.6344 17.725 22.4531 17.6292 22.4719 17.4566C22.475 17.4406 22.475 17.4214 22.4781 17.4054C22.5781 16.7087 23.2031 16.2293 23.875 16.3348C24.5469 16.4402 25.0094 17.0858 24.9094 17.7826C24.9062 17.7985 24.9031 17.8177 24.9 17.8337H24.8969ZM24.5625 21.0105C23.95 22.4392 22.475 23.3277 20.9125 23.0848C19.35 22.8419 18.1906 21.5443 18.0062 19.9942C17.975 19.7289 18.2844 19.6075 18.4812 19.7801C19.2281 20.4449 20.1562 20.9083 21.2 21.0681C22.2437 21.2279 23.2656 21.0713 24.1656 20.659C24.4031 20.5503 24.6656 20.7613 24.5594 21.0074L24.5625 21.0105Z" fill="url(#paint0_linear_3_633)"/>
<defs>
<linearGradient id="paint0_linear_3_633" x1="17.9984" y1="9.81775" x2="17.9984" y2="26.143" gradientUnits="userSpaceOnUse">
<stop stop-color="#AC8AF7"/>
<stop offset="1" stop-color="#6E4CEE"/>
</linearGradient>
</defs>
</svg>
