<svg width="24" height="24" viewBox="0 0 24 24" fill="none" xmlns="http://www.w3.org/2000/svg">
<path d="M21.4849 8.07099L16.1209 2.70699C14.9929 1.57899 13.0099 1.57099 11.8729 2.68899L2.72495 11.691C2.44343 11.9667 2.21965 12.2957 2.06667 12.6589C1.91369 13.022 1.83458 13.412 1.83395 13.806C1.83098 14.1998 1.90667 14.5903 2.05658 14.9545C2.20649 15.3187 2.4276 15.6493 2.70695 15.927L8.07195 21.292C8.63895 21.859 9.39695 22.172 10.2049 22.172C11.0039 22.172 11.7559 21.865 12.3199 21.31L21.4669 12.307C21.7486 12.0314 21.9725 11.7024 22.1255 11.3393C22.2785 10.9761 22.3575 10.5861 22.3579 10.192C22.3607 9.79817 22.285 9.40775 22.1351 9.04356C21.9852 8.67937 21.7642 8.34874 21.4849 8.07099ZM20.0639 10.882L10.9179 19.885C10.5369 20.258 9.86195 20.255 9.48595 19.879L8.21095 18.604C8.55516 18.2247 8.74063 17.7277 8.72909 17.2156C8.71756 16.7035 8.50989 16.2154 8.14895 15.852C7.78589 15.4905 7.29776 15.2823 6.78553 15.2706C6.27331 15.2589 5.77617 15.4445 5.39695 15.789L4.12195 14.515C3.93595 14.328 3.83395 14.08 3.83495 13.816C3.83595 13.552 3.93995 13.303 4.12795 13.119L13.2759 4.11699C13.4649 3.93099 13.7169 3.82899 13.9889 3.82899C14.2619 3.82899 14.5179 3.93299 14.7079 4.12299L15.9829 5.39799C15.6381 5.77681 15.4522 6.27376 15.4638 6.78589C15.4753 7.29802 15.6834 7.78609 16.0449 8.14899C16.408 8.51052 16.8961 8.71868 17.4084 8.73041C17.9206 8.74213 18.4177 8.55653 18.7969 8.21199L20.0709 9.48599C20.2579 9.67299 20.3589 9.92099 20.3579 10.185C20.3569 10.449 20.2529 10.697 20.0639 10.882ZM11.6009 17.042L6.94395 12.386L12.5929 6.95699L17.2499 11.613L11.6009 17.042ZM8.37095 12.399L11.6139 15.641L15.8199 11.6L12.5789 8.35799L8.37095 12.399Z" fill="#CDD9FF"/>
</svg>
