<svg width="24" height="24" viewBox="0 0 24 24" fill="none" xmlns="http://www.w3.org/2000/svg">
<path d="M21.4849 8.07075L16.1209 2.70675C14.9929 1.57875 13.0099 1.57075 11.8729 2.68875L2.72495 11.6907C2.44343 11.9665 2.21965 12.2955 2.06667 12.6586C1.91369 13.0217 1.83458 13.4117 1.83395 13.8057C1.83098 14.1996 1.90667 14.5901 2.05658 14.9543C2.20649 15.3185 2.4276 15.6491 2.70695 15.9267L8.07195 21.2917C8.63895 21.8587 9.39695 22.1717 10.2049 22.1717C11.0039 22.1717 11.7559 21.8647 12.3199 21.3097L21.4669 12.3067C21.7486 12.0312 21.9725 11.7022 22.1255 11.339C22.2785 10.9759 22.3575 10.5858 22.3579 10.1917C22.3607 9.79793 22.285 9.4075 22.1351 9.04332C21.9852 8.67913 21.7642 8.34849 21.4849 8.07075ZM20.0639 10.8817L10.9179 19.8847C10.5369 20.2577 9.86195 20.2547 9.48595 19.8787L8.21095 18.6037C8.55516 18.2244 8.74063 17.7275 8.72909 17.2154C8.71756 16.7033 8.50989 16.2152 8.14895 15.8517C7.78589 15.4902 7.29776 15.2821 6.78553 15.2703C6.27331 15.2586 5.77617 15.4442 5.39695 15.7887L4.12195 14.5147C3.93595 14.3277 3.83395 14.0797 3.83495 13.8157C3.83595 13.5517 3.93995 13.3027 4.12795 13.1187L13.2759 4.11675C13.4649 3.93075 13.7169 3.82875 13.9889 3.82875C14.2619 3.82875 14.5179 3.93275 14.7079 4.12275L15.9829 5.39775C15.6381 5.77656 15.4522 6.27351 15.4638 6.78565C15.4753 7.29778 15.6834 7.78585 16.0449 8.14875C16.408 8.51028 16.8961 8.71843 17.4084 8.73016C17.9206 8.74189 18.4177 8.55629 18.7969 8.21175L20.0709 9.48575C20.2579 9.67275 20.3589 9.92075 20.3579 10.1847C20.3569 10.4487 20.2529 10.6967 20.0639 10.8817ZM11.6009 17.0417L6.94395 12.3857L12.5929 6.95675L17.2499 11.6127L11.6009 17.0417ZM8.37095 12.3987L11.6139 15.6407L15.8199 11.5997L12.5789 8.35775L8.37095 12.3987Z" fill="url(#paint0_linear_2233_828)"/>
<defs>
<linearGradient id="paint0_linear_2233_828" x1="12.0959" y1="1.85547" x2="12.0959" y2="22.1717" gradientUnits="userSpaceOnUse">
<stop stop-color="#AC8AF7"/>
<stop offset="1" stop-color="#6E4CEE"/>
</linearGradient>
</defs>
</svg>
