<svg width="14" height="14" viewBox="0 0 14 14" fill="none" xmlns="http://www.w3.org/2000/svg">
<path d="M5.67132 0.402722C5.21897 0.256412 4.72928 0.276033 4.29008 0.458067C3.85088 0.6401 3.49089 0.97264 3.27466 1.39606L2.73733 2.44672C2.67347 2.57181 2.57175 2.67353 2.44666 2.73739L1.39533 3.27472C0.97191 3.49095 0.639371 3.85094 0.457337 4.29014C0.275303 4.72934 0.255682 5.21903 0.401992 5.67139L0.765992 6.79472C0.809204 6.9282 0.809204 7.07191 0.765992 7.20539L0.402659 8.32872C0.256349 8.78108 0.27597 9.27077 0.458004 9.70997C0.640037 10.1492 0.972577 10.5092 1.39599 10.7254L2.44666 11.2627C2.57175 11.3266 2.67347 11.4283 2.73733 11.5534L3.27466 12.6047C3.49089 13.0281 3.85088 13.3607 4.29008 13.5427C4.72928 13.7247 5.21897 13.7444 5.67132 13.5981L6.79466 13.2341C6.92814 13.1908 7.07185 13.1908 7.20532 13.2341L8.32866 13.5974C8.78094 13.7437 9.27057 13.7242 9.70976 13.5423C10.1489 13.3604 10.509 13.028 10.7253 12.6047L11.2627 11.5534C11.3265 11.4283 11.4282 11.3266 11.5533 11.2627L12.6047 10.7261C13.0282 10.5098 13.3609 10.1497 13.5429 9.71036C13.725 9.27101 13.7445 8.78117 13.598 8.32872L13.234 7.20539C13.1908 7.07191 13.1908 6.9282 13.234 6.79472L13.5973 5.67139C13.7437 5.21911 13.7242 4.72948 13.5423 4.29029C13.3603 3.8511 13.028 3.49106 12.6047 3.27472L11.5533 2.73739C11.4282 2.67353 11.3265 2.57181 11.2627 2.44672L10.726 1.39539C10.5097 0.971827 10.1496 0.639183 9.71029 0.45714C9.27095 0.275096 8.78111 0.255566 8.32866 0.402055L7.20532 0.766055C7.07185 0.809267 6.92814 0.809267 6.79466 0.766055L5.67132 0.402722ZM3.50666 6.83806L4.44933 5.89539L6.33466 7.78139L10.106 4.01005L11.0493 4.95272L6.33466 9.66605L3.50666 6.83806Z" fill="url(#paint0_linear_3_778)"/>
<defs>
<linearGradient id="paint0_linear_3_778" x1="7.00008" y1="0.30481" x2="7.00008" y2="13.6951" gradientUnits="userSpaceOnUse">
<stop stop-color="#F7DF8A"/>
<stop offset="0.0001" stop-color="#F5DF92"/>
<stop offset="1" stop-color="#EEAD4C"/>
</linearGradient>
</defs>
</svg>
