<svg width="40" height="15" viewBox="0 0 40 15" fill="none" xmlns="http://www.w3.org/2000/svg">
<path d="M9.06934 1.50586L5.57617 11.5H3.83984L0.34668 1.50586H2.02832L4.13379 7.76758C4.19759 7.94987 4.26595 8.1709 4.33887 8.43066C4.41634 8.69043 4.48698 8.95247 4.55078 9.2168C4.61914 9.48112 4.67155 9.71582 4.70801 9.9209C4.74447 9.71582 4.7946 9.48112 4.8584 9.2168C4.92676 8.95247 4.9974 8.69043 5.07031 8.43066C5.14323 8.1709 5.21159 7.94759 5.27539 7.76074L7.3877 1.50586H9.06934ZM13.2324 3.78906C13.9069 3.78906 14.4857 3.92806 14.9688 4.20605C15.4518 4.48405 15.8232 4.87826 16.083 5.38867C16.3428 5.89909 16.4727 6.50977 16.4727 7.2207V8.08203H11.4209C11.4391 8.81576 11.6351 9.38086 12.0088 9.77734C12.387 10.1738 12.9157 10.3721 13.5947 10.3721C14.0778 10.3721 14.5107 10.3265 14.8936 10.2354C15.2809 10.1396 15.6797 10.0007 16.0898 9.81836V11.124C15.7116 11.3018 15.3265 11.4316 14.9346 11.5137C14.5426 11.5957 14.0732 11.6367 13.5264 11.6367C12.7835 11.6367 12.1296 11.4932 11.5645 11.2061C11.0039 10.9144 10.5641 10.4814 10.2451 9.90723C9.93066 9.33301 9.77344 8.61979 9.77344 7.76758C9.77344 6.91992 9.91699 6.19987 10.2041 5.60742C10.4912 5.01497 10.8945 4.5638 11.4141 4.25391C11.9336 3.94401 12.5397 3.78906 13.2324 3.78906ZM13.2324 4.99902C12.7266 4.99902 12.3164 5.16309 12.002 5.49121C11.6921 5.81934 11.5098 6.30013 11.4551 6.93359H14.9004C14.8958 6.55534 14.832 6.22038 14.709 5.92871C14.5905 5.63704 14.4082 5.40918 14.1621 5.24512C13.9206 5.08105 13.6107 4.99902 13.2324 4.99902ZM22.1191 3.78906C22.2467 3.78906 22.3857 3.7959 22.5361 3.80957C22.6865 3.82324 22.8164 3.84147 22.9258 3.86426L22.7754 5.36816C22.6797 5.34082 22.5612 5.32031 22.4199 5.30664C22.2832 5.29297 22.1602 5.28613 22.0508 5.28613C21.7637 5.28613 21.4902 5.33398 21.2305 5.42969C20.9707 5.52083 20.7406 5.66211 20.54 5.85352C20.3395 6.04036 20.1823 6.27507 20.0684 6.55762C19.9544 6.84017 19.8975 7.16829 19.8975 7.54199V11.5H18.2842V3.93262H19.542L19.7607 5.26562H19.8359C19.9863 4.99674 20.1732 4.75065 20.3965 4.52734C20.6198 4.30404 20.875 4.1263 21.1621 3.99414C21.4538 3.85742 21.7728 3.78906 22.1191 3.78906ZM25.9336 3.93262V11.5H24.3271V3.93262H25.9336ZM25.1406 1.03418C25.3867 1.03418 25.5986 1.10026 25.7764 1.23242C25.9587 1.36458 26.0498 1.59245 26.0498 1.91602C26.0498 2.23503 25.9587 2.46289 25.7764 2.59961C25.5986 2.73177 25.3867 2.79785 25.1406 2.79785C24.8854 2.79785 24.6689 2.73177 24.4912 2.59961C24.318 2.46289 24.2314 2.23503 24.2314 1.91602C24.2314 1.59245 24.318 1.36458 24.4912 1.23242C24.6689 1.10026 24.8854 1.03418 25.1406 1.03418ZM32.0176 5.15625H30.1787V11.5H28.5723V5.15625H27.335V4.38379L28.5723 3.91211V3.38574C28.5723 2.74316 28.6725 2.23275 28.873 1.85449C29.0781 1.47624 29.3698 1.20508 29.748 1.04102C30.1309 0.872396 30.5866 0.788086 31.1152 0.788086C31.4616 0.788086 31.7783 0.817708 32.0654 0.876953C32.3525 0.931641 32.5941 0.995443 32.79 1.06836L32.373 2.28516C32.2181 2.23503 32.0449 2.18945 31.8535 2.14844C31.6621 2.10286 31.457 2.08008 31.2383 2.08008C30.8737 2.08008 30.6048 2.19401 30.4316 2.42188C30.263 2.64974 30.1787 2.98242 30.1787 3.41992V3.93262H32.0176V5.15625ZM32.168 3.93262H33.918L35.4697 8.25293C35.5381 8.44889 35.5996 8.64258 35.6543 8.83398C35.7135 9.02083 35.7637 9.2054 35.8047 9.3877C35.8503 9.56999 35.8867 9.75228 35.9141 9.93457H35.9551C36.0007 9.69759 36.0645 9.43327 36.1465 9.1416C36.2331 8.84538 36.3288 8.54915 36.4336 8.25293L37.9238 3.93262H39.6533L36.4062 12.5391C36.2194 13.0312 35.9893 13.4505 35.7158 13.7969C35.4469 14.1478 35.1279 14.4121 34.7588 14.5898C34.3896 14.7721 33.9681 14.8633 33.4941 14.8633C33.2663 14.8633 33.068 14.8496 32.8994 14.8223C32.7308 14.7995 32.5872 14.7744 32.4688 14.7471V13.4619C32.5645 13.4847 32.6852 13.5052 32.8311 13.5234C32.9769 13.5417 33.1273 13.5508 33.2822 13.5508C33.5693 13.5508 33.8177 13.4938 34.0273 13.3799C34.237 13.266 34.4147 13.1042 34.5605 12.8945C34.7064 12.6895 34.8271 12.4548 34.9229 12.1904L35.1895 11.4795L32.168 3.93262Z" fill="#3FDD75"/>
</svg>
